<svg width="100" height="170" viewBox="0 0 255 170" fill="none" xmlns="http://www.w3.org/2000/svg">
<ellipse cx="121.5" cy="81" rx="121.5" ry="81" transform="matrix(-1 0 0 1 255 0)" fill="#136FBC" fill-opacity="0.26"/>
<path d="M41.1719 64V52.5469H43.4844V57.0547H48.0156V52.5469H50.3281V64H48.0156V58.9922H43.4844V64H41.1719ZM54.3516 58.2344L52.3594 57.875C52.5833 57.0729 52.9688 56.4792 53.5156 56.0938C54.0625 55.7083 54.875 55.5156 55.9531 55.5156C56.9323 55.5156 57.6615 55.6328 58.1406 55.8672C58.6198 56.0964 58.9557 56.3906 59.1484 56.75C59.3464 57.1042 59.4453 57.7578 59.4453 58.7109L59.4219 61.2734C59.4219 62.0026 59.4557 62.5417 59.5234 62.8906C59.5964 63.2344 59.7292 63.6042 59.9219 64H57.75C57.6927 63.8542 57.6224 63.638 57.5391 63.3516C57.5026 63.2214 57.4766 63.1354 57.4609 63.0938C57.0859 63.4583 56.6849 63.7318 56.2578 63.9141C55.8307 64.0964 55.375 64.1875 54.8906 64.1875C54.0365 64.1875 53.362 63.9557 52.8672 63.4922C52.3776 63.0286 52.1328 62.4427 52.1328 61.7344C52.1328 61.2656 52.2448 60.849 52.4688 60.4844C52.6927 60.1146 53.0052 59.8333 53.4062 59.6406C53.8125 59.4427 54.3958 59.2708 55.1562 59.125C56.1823 58.9323 56.8932 58.7526 57.2891 58.5859V58.3672C57.2891 57.9453 57.1849 57.6458 56.9766 57.4688C56.7682 57.2865 56.375 57.1953 55.7969 57.1953C55.4062 57.1953 55.1016 57.2734 54.8828 57.4297C54.6641 57.5807 54.487 57.849 54.3516 58.2344ZM57.2891 60.0156C57.0078 60.1094 56.5625 60.2214 55.9531 60.3516C55.3438 60.4818 54.9453 60.6094 54.7578 60.7344C54.4714 60.9375 54.3281 61.1953 54.3281 61.5078C54.3281 61.8151 54.4427 62.0807 54.6719 62.3047C54.901 62.5286 55.1927 62.6406 55.5469 62.6406C55.9427 62.6406 56.3203 62.5104 56.6797 62.25C56.9453 62.0521 57.1198 61.8099 57.2031 61.5234C57.2604 61.3359 57.2891 60.9792 57.2891 60.4531V60.0156ZM61.6172 64V52.5469H63.8125V64H61.6172ZM66.0703 64V52.5469H68.2656V64H66.0703ZM70.0156 59.7344C70.0156 59.0052 70.1953 58.2995 70.5547 57.6172C70.9141 56.9349 71.4219 56.4141 72.0781 56.0547C72.7396 55.6953 73.4766 55.5156 74.2891 55.5156C75.5443 55.5156 76.5729 55.9245 77.375 56.7422C78.1771 57.5547 78.5781 58.5833 78.5781 59.8281C78.5781 61.0833 78.1719 62.125 77.3594 62.9531C76.5521 63.776 75.5339 64.1875 74.3047 64.1875C73.5443 64.1875 72.8177 64.0156 72.125 63.6719C71.4375 63.3281 70.9141 62.8255 70.5547 62.1641C70.1953 61.4974 70.0156 60.6875 70.0156 59.7344ZM72.2656 59.8516C72.2656 60.6745 72.4609 61.3047 72.8516 61.7422C73.2422 62.1797 73.724 62.3984 74.2969 62.3984C74.8698 62.3984 75.349 62.1797 75.7344 61.7422C76.125 61.3047 76.3203 60.6693 76.3203 59.8359C76.3203 59.0234 76.125 58.3984 75.7344 57.9609C75.349 57.5234 74.8698 57.3047 74.2969 57.3047C73.724 57.3047 73.2422 57.5234 72.8516 57.9609C72.4609 58.3984 72.2656 59.0286 72.2656 59.8516ZM80.5781 64V62.3984H82.1797V64C82.1797 64.5885 82.0755 65.0625 81.8672 65.4219C81.6589 65.7865 81.3281 66.0677 80.875 66.2656L80.4844 65.6641C80.7812 65.5339 81 65.3411 81.1406 65.0859C81.2812 64.8359 81.3594 64.474 81.375 64H80.5781ZM89.5547 64V52.5469H91.0703V64H89.5547ZM93.5781 64V52.5469H94.9844V59.0781L98.3125 55.7031H100.133L96.9609 58.7812L100.453 64H98.7188L95.9766 59.7578L94.9844 60.7109V64H93.5781ZM107.32 64H106.016V52.5469H107.422V56.6328C108.016 55.888 108.773 55.5156 109.695 55.5156C110.206 55.5156 110.688 55.6198 111.141 55.8281C111.599 56.0312 111.974 56.3203 112.266 56.6953C112.562 57.0651 112.794 57.513 112.961 58.0391C113.128 58.5651 113.211 59.1276 113.211 59.7266C113.211 61.1484 112.859 62.2474 112.156 63.0234C111.453 63.7995 110.609 64.1875 109.625 64.1875C108.646 64.1875 107.878 63.7786 107.32 62.9609V64ZM107.305 59.7891C107.305 60.7839 107.44 61.5026 107.711 61.9453C108.154 62.6693 108.753 63.0312 109.508 63.0312C110.122 63.0312 110.654 62.7656 111.102 62.2344C111.549 61.6979 111.773 60.901 111.773 59.8438C111.773 58.7604 111.557 57.9609 111.125 57.4453C110.698 56.9297 110.18 56.6719 109.57 56.6719C108.956 56.6719 108.424 56.9401 107.977 57.4766C107.529 58.0078 107.305 58.7786 107.305 59.7891ZM120.609 61.3281L122.062 61.5078C121.833 62.3568 121.409 63.0156 120.789 63.4844C120.169 63.9531 119.378 64.1875 118.414 64.1875C117.201 64.1875 116.237 63.8151 115.523 63.0703C114.815 62.3203 114.461 61.2708 114.461 59.9219C114.461 58.526 114.82 57.4427 115.539 56.6719C116.258 55.901 117.19 55.5156 118.336 55.5156C119.445 55.5156 120.352 55.8932 121.055 56.6484C121.758 57.4036 122.109 58.4661 122.109 59.8359C122.109 59.9193 122.107 60.0443 122.102 60.2109H115.914C115.966 61.1224 116.224 61.8203 116.688 62.3047C117.151 62.7891 117.729 63.0312 118.422 63.0312C118.938 63.0312 119.378 62.8958 119.742 62.625C120.107 62.3542 120.396 61.9219 120.609 61.3281ZM115.992 59.0547H120.625C120.562 58.3568 120.385 57.8333 120.094 57.4844C119.646 56.9427 119.065 56.6719 118.352 56.6719C117.706 56.6719 117.161 56.888 116.719 57.3203C116.281 57.7526 116.039 58.3307 115.992 59.0547ZM123.836 64V55.7031H125.102V56.8828C125.711 55.9714 126.591 55.5156 127.742 55.5156C128.242 55.5156 128.701 55.6068 129.117 55.7891C129.539 55.9661 129.854 56.2005 130.062 56.4922C130.271 56.7839 130.417 57.1302 130.5 57.5312C130.552 57.7917 130.578 58.2474 130.578 58.8984V64H129.172V58.9531C129.172 58.3802 129.117 57.9531 129.008 57.6719C128.898 57.3854 128.703 57.1589 128.422 56.9922C128.146 56.8203 127.82 56.7344 127.445 56.7344C126.846 56.7344 126.328 56.9245 125.891 57.3047C125.458 57.6849 125.242 58.4062 125.242 59.4688V64H123.836ZM142.633 64V62.7812C141.987 63.7188 141.109 64.1875 140 64.1875C139.51 64.1875 139.052 64.0938 138.625 63.9062C138.203 63.7188 137.888 63.4844 137.68 63.2031C137.477 62.9167 137.333 62.5677 137.25 62.1562C137.193 61.8802 137.164 61.4427 137.164 60.8438V55.7031H138.57V60.3047C138.57 61.0391 138.599 61.5339 138.656 61.7891C138.745 62.1589 138.932 62.4505 139.219 62.6641C139.505 62.8724 139.859 62.9766 140.281 62.9766C140.703 62.9766 141.099 62.8698 141.469 62.6562C141.839 62.4375 142.099 62.1432 142.25 61.7734C142.406 61.3984 142.484 60.8568 142.484 60.1484V55.7031H143.891V64H142.633ZM147.633 64L145.094 55.7031H146.547L147.867 60.4922L148.359 62.2734C148.38 62.1849 148.523 61.6146 148.789 60.5625L150.109 55.7031H151.555L152.797 60.5156L153.211 62.1016L153.688 60.5L155.109 55.7031H156.477L153.883 64H152.422L151.102 59.0312L150.781 57.6172L149.102 64H147.633ZM167.5 64V62.9531C166.974 63.776 166.201 64.1875 165.18 64.1875C164.518 64.1875 163.909 64.0052 163.352 63.6406C162.799 63.276 162.37 62.7682 162.062 62.1172C161.76 61.4609 161.609 60.7083 161.609 59.8594C161.609 59.0312 161.747 58.2812 162.023 57.6094C162.299 56.9323 162.714 56.4141 163.266 56.0547C163.818 55.6953 164.435 55.5156 165.117 55.5156C165.617 55.5156 166.062 55.6224 166.453 55.8359C166.844 56.0443 167.161 56.3177 167.406 56.6562V52.5469H168.805V64H167.5ZM163.055 59.8594C163.055 60.9219 163.279 61.7161 163.727 62.2422C164.174 62.7682 164.703 63.0312 165.312 63.0312C165.927 63.0312 166.448 62.7812 166.875 62.2812C167.307 61.776 167.523 61.0078 167.523 59.9766C167.523 58.8411 167.305 58.0078 166.867 57.4766C166.43 56.9453 165.891 56.6797 165.25 56.6797C164.625 56.6797 164.102 56.9349 163.68 57.4453C163.263 57.9557 163.055 58.7604 163.055 59.8594ZM171.031 54.1641V52.5469H172.438V54.1641H171.031ZM171.031 64V55.7031H172.438V64H171.031ZM174.328 64.6875L175.695 64.8906C175.753 65.3125 175.911 65.6198 176.172 65.8125C176.521 66.0729 176.997 66.2031 177.602 66.2031C178.253 66.2031 178.755 66.0729 179.109 65.8125C179.464 65.5521 179.703 65.1875 179.828 64.7188C179.901 64.4323 179.935 63.8307 179.93 62.9141C179.315 63.638 178.549 64 177.633 64C176.492 64 175.609 63.5885 174.984 62.7656C174.359 61.9427 174.047 60.9557 174.047 59.8047C174.047 59.013 174.19 58.2839 174.477 57.6172C174.763 56.9453 175.177 56.4271 175.719 56.0625C176.266 55.6979 176.906 55.5156 177.641 55.5156C178.62 55.5156 179.427 55.9115 180.062 56.7031V55.7031H181.359V62.875C181.359 64.1667 181.227 65.0807 180.961 65.6172C180.701 66.1589 180.284 66.5859 179.711 66.8984C179.143 67.2109 178.443 67.3672 177.609 67.3672C176.62 67.3672 175.82 67.1432 175.211 66.6953C174.602 66.2526 174.307 65.5833 174.328 64.6875ZM175.492 59.7031C175.492 60.7917 175.708 61.5859 176.141 62.0859C176.573 62.5859 177.115 62.8359 177.766 62.8359C178.411 62.8359 178.953 62.5885 179.391 62.0938C179.828 61.5938 180.047 60.8125 180.047 59.75C180.047 58.7344 179.82 57.9688 179.367 57.4531C178.919 56.9375 178.378 56.6797 177.742 56.6797C177.117 56.6797 176.586 56.9349 176.148 57.4453C175.711 57.9505 175.492 58.7031 175.492 59.7031ZM183.5 54.1641V52.5469H184.906V54.1641H183.5ZM183.5 64V55.7031H184.906V64H183.5ZM190.125 62.7422L190.328 63.9844C189.932 64.0677 189.578 64.1094 189.266 64.1094C188.755 64.1094 188.359 64.0286 188.078 63.8672C187.797 63.7057 187.599 63.4948 187.484 63.2344C187.37 62.9688 187.312 62.4141 187.312 61.5703V56.7969H186.281V55.7031H187.312V53.6484L188.711 52.8047V55.7031H190.125V56.7969H188.711V61.6484C188.711 62.0495 188.734 62.3073 188.781 62.4219C188.833 62.5365 188.914 62.6276 189.023 62.6953C189.138 62.763 189.299 62.7969 189.508 62.7969C189.664 62.7969 189.87 62.7786 190.125 62.7422ZM196.922 62.9766C196.401 63.4193 195.898 63.7318 195.414 63.9141C194.935 64.0964 194.419 64.1875 193.867 64.1875C192.956 64.1875 192.255 63.9661 191.766 63.5234C191.276 63.0755 191.031 62.5052 191.031 61.8125C191.031 61.4062 191.122 61.0365 191.305 60.7031C191.492 60.3646 191.734 60.0938 192.031 59.8906C192.333 59.6875 192.672 59.5339 193.047 59.4297C193.323 59.3568 193.74 59.2865 194.297 59.2188C195.432 59.0833 196.268 58.9219 196.805 58.7344C196.81 58.5417 196.812 58.4193 196.812 58.3672C196.812 57.7943 196.68 57.3906 196.414 57.1562C196.055 56.8385 195.521 56.6797 194.812 56.6797C194.151 56.6797 193.661 56.7969 193.344 57.0312C193.031 57.2604 192.799 57.6693 192.648 58.2578L191.273 58.0703C191.398 57.4818 191.604 57.0078 191.891 56.6484C192.177 56.2839 192.591 56.0052 193.133 55.8125C193.674 55.6146 194.302 55.5156 195.016 55.5156C195.724 55.5156 196.299 55.599 196.742 55.7656C197.185 55.9323 197.51 56.1432 197.719 56.3984C197.927 56.6484 198.073 56.9661 198.156 57.3516C198.203 57.5911 198.227 58.0234 198.227 58.6484V60.5234C198.227 61.8307 198.255 62.6589 198.312 63.0078C198.375 63.3516 198.495 63.6823 198.672 64H197.203C197.057 63.7083 196.964 63.3672 196.922 62.9766ZM196.805 59.8359C196.294 60.0443 195.529 60.2214 194.508 60.3672C193.93 60.4505 193.521 60.5443 193.281 60.6484C193.042 60.7526 192.857 60.9062 192.727 61.1094C192.596 61.3073 192.531 61.5286 192.531 61.7734C192.531 62.1484 192.672 62.4609 192.953 62.7109C193.24 62.9609 193.656 63.0859 194.203 63.0859C194.745 63.0859 195.227 62.9688 195.648 62.7344C196.07 62.4948 196.38 62.1693 196.578 61.7578C196.729 61.4401 196.805 60.9714 196.805 60.3516V59.8359ZM200.383 64V52.5469H201.789V64H200.383ZM209.656 61.3281L211.109 61.5078C210.88 62.3568 210.456 63.0156 209.836 63.4844C209.216 63.9531 208.424 64.1875 207.461 64.1875C206.247 64.1875 205.284 63.8151 204.57 63.0703C203.862 62.3203 203.508 61.2708 203.508 59.9219C203.508 58.526 203.867 57.4427 204.586 56.6719C205.305 55.901 206.237 55.5156 207.383 55.5156C208.492 55.5156 209.398 55.8932 210.102 56.6484C210.805 57.4036 211.156 58.4661 211.156 59.8359C211.156 59.9193 211.154 60.0443 211.148 60.2109H204.961C205.013 61.1224 205.271 61.8203 205.734 62.3047C206.198 62.7891 206.776 63.0312 207.469 63.0312C207.984 63.0312 208.424 62.8958 208.789 62.625C209.154 62.3542 209.443 61.9219 209.656 61.3281ZM205.039 59.0547H209.672C209.609 58.3568 209.432 57.8333 209.141 57.4844C208.693 56.9427 208.112 56.6719 207.398 56.6719C206.753 56.6719 206.208 56.888 205.766 57.3203C205.328 57.7526 205.086 58.3307 205.039 59.0547ZM46.4688 80.9766C45.9479 81.4193 45.4453 81.7318 44.9609 81.9141C44.4818 82.0964 43.9661 82.1875 43.4141 82.1875C42.5026 82.1875 41.8021 81.9661 41.3125 81.5234C40.8229 81.0755 40.5781 80.5052 40.5781 79.8125C40.5781 79.4062 40.6693 79.0365 40.8516 78.7031C41.0391 78.3646 41.2812 78.0938 41.5781 77.8906C41.8802 77.6875 42.2188 77.5339 42.5938 77.4297C42.8698 77.3568 43.2865 77.2865 43.8438 77.2188C44.9792 77.0833 45.8151 76.9219 46.3516 76.7344C46.3568 76.5417 46.3594 76.4193 46.3594 76.3672C46.3594 75.7943 46.2266 75.3906 45.9609 75.1562C45.6016 74.8385 45.0677 74.6797 44.3594 74.6797C43.6979 74.6797 43.2083 74.7969 42.8906 75.0312C42.5781 75.2604 42.3464 75.6693 42.1953 76.2578L40.8203 76.0703C40.9453 75.4818 41.151 75.0078 41.4375 74.6484C41.724 74.2839 42.138 74.0052 42.6797 73.8125C43.2214 73.6146 43.849 73.5156 44.5625 73.5156C45.2708 73.5156 45.8464 73.599 46.2891 73.7656C46.7318 73.9323 47.0573 74.1432 47.2656 74.3984C47.474 74.6484 47.6198 74.9661 47.7031 75.3516C47.75 75.5911 47.7734 76.0234 47.7734 76.6484V78.5234C47.7734 79.8307 47.8021 80.6589 47.8594 81.0078C47.9219 81.3516 48.0417 81.6823 48.2188 82H46.75C46.6042 81.7083 46.5104 81.3672 46.4688 80.9766ZM46.3516 77.8359C45.8411 78.0443 45.0755 78.2214 44.0547 78.3672C43.4766 78.4505 43.0677 78.5443 42.8281 78.6484C42.5885 78.7526 42.4036 78.9062 42.2734 79.1094C42.1432 79.3073 42.0781 79.5286 42.0781 79.7734C42.0781 80.1484 42.2188 80.4609 42.5 80.7109C42.7865 80.9609 43.2031 81.0859 43.75 81.0859C44.2917 81.0859 44.7734 80.9688 45.1953 80.7344C45.6172 80.4948 45.9271 80.1693 46.125 79.7578C46.276 79.4401 46.3516 78.9714 46.3516 78.3516V77.8359ZM49.3984 79.5234L50.7891 79.3047C50.8672 79.862 51.0833 80.2891 51.4375 80.5859C51.7969 80.8828 52.2969 81.0312 52.9375 81.0312C53.5833 81.0312 54.0625 80.901 54.375 80.6406C54.6875 80.375 54.8438 80.0651 54.8438 79.7109C54.8438 79.3932 54.7057 79.1432 54.4297 78.9609C54.237 78.8359 53.7578 78.6771 52.9922 78.4844C51.9609 78.224 51.2448 78 50.8438 77.8125C50.4479 77.6198 50.1458 77.3568 49.9375 77.0234C49.7344 76.6849 49.6328 76.3125 49.6328 75.9062C49.6328 75.5365 49.7161 75.1953 49.8828 74.8828C50.0547 74.5651 50.2865 74.3021 50.5781 74.0938C50.7969 73.9323 51.0938 73.7969 51.4688 73.6875C51.849 73.5729 52.2552 73.5156 52.6875 73.5156C53.3385 73.5156 53.9089 73.6094 54.3984 73.7969C54.8932 73.9844 55.2578 74.2396 55.4922 74.5625C55.7266 74.8802 55.888 75.3073 55.9766 75.8438L54.6016 76.0312C54.5391 75.6042 54.3568 75.2708 54.0547 75.0312C53.7578 74.7917 53.3359 74.6719 52.7891 74.6719C52.1432 74.6719 51.6823 74.7786 51.4062 74.9922C51.1302 75.2057 50.9922 75.4557 50.9922 75.7422C50.9922 75.9245 51.0495 76.0885 51.1641 76.2344C51.2786 76.3854 51.4583 76.5104 51.7031 76.6094C51.8438 76.6615 52.2578 76.7812 52.9453 76.9688C53.9401 77.2344 54.6328 77.4531 55.0234 77.625C55.4193 77.7917 55.7292 78.0365 55.9531 78.3594C56.1771 78.6823 56.2891 79.0833 56.2891 79.5625C56.2891 80.0312 56.151 80.474 55.875 80.8906C55.6042 81.3021 55.2109 81.6224 54.6953 81.8516C54.1797 82.0755 53.5964 82.1875 52.9453 82.1875C51.8672 82.1875 51.0443 81.9635 50.4766 81.5156C49.9141 81.0677 49.5547 80.4036 49.3984 79.5234ZM57.3984 79.5234L58.7891 79.3047C58.8672 79.862 59.0833 80.2891 59.4375 80.5859C59.7969 80.8828 60.2969 81.0312 60.9375 81.0312C61.5833 81.0312 62.0625 80.901 62.375 80.6406C62.6875 80.375 62.8438 80.0651 62.8438 79.7109C62.8438 79.3932 62.7057 79.1432 62.4297 78.9609C62.237 78.8359 61.7578 78.6771 60.9922 78.4844C59.9609 78.224 59.2448 78 58.8438 77.8125C58.4479 77.6198 58.1458 77.3568 57.9375 77.0234C57.7344 76.6849 57.6328 76.3125 57.6328 75.9062C57.6328 75.5365 57.7161 75.1953 57.8828 74.8828C58.0547 74.5651 58.2865 74.3021 58.5781 74.0938C58.7969 73.9323 59.0938 73.7969 59.4688 73.6875C59.849 73.5729 60.2552 73.5156 60.6875 73.5156C61.3385 73.5156 61.9089 73.6094 62.3984 73.7969C62.8932 73.9844 63.2578 74.2396 63.4922 74.5625C63.7266 74.8802 63.888 75.3073 63.9766 75.8438L62.6016 76.0312C62.5391 75.6042 62.3568 75.2708 62.0547 75.0312C61.7578 74.7917 61.3359 74.6719 60.7891 74.6719C60.1432 74.6719 59.6823 74.7786 59.4062 74.9922C59.1302 75.2057 58.9922 75.4557 58.9922 75.7422C58.9922 75.9245 59.0495 76.0885 59.1641 76.2344C59.2786 76.3854 59.4583 76.5104 59.7031 76.6094C59.8438 76.6615 60.2578 76.7812 60.9453 76.9688C61.9401 77.2344 62.6328 77.4531 63.0234 77.625C63.4193 77.7917 63.7292 78.0365 63.9531 78.3594C64.1771 78.6823 64.2891 79.0833 64.2891 79.5625C64.2891 80.0312 64.151 80.474 63.875 80.8906C63.6042 81.3021 63.2109 81.6224 62.6953 81.8516C62.1797 82.0755 61.5964 82.1875 60.9453 82.1875C59.8672 82.1875 59.0443 81.9635 58.4766 81.5156C57.9141 81.0677 57.5547 80.4036 57.3984 79.5234ZM65.9688 72.1641V70.5469H67.375V72.1641H65.9688ZM65.9688 82V73.7031H67.375V82H65.9688ZM68.9609 79.5234L70.3516 79.3047C70.4297 79.862 70.6458 80.2891 71 80.5859C71.3594 80.8828 71.8594 81.0312 72.5 81.0312C73.1458 81.0312 73.625 80.901 73.9375 80.6406C74.25 80.375 74.4062 80.0651 74.4062 79.7109C74.4062 79.3932 74.2682 79.1432 73.9922 78.9609C73.7995 78.8359 73.3203 78.6771 72.5547 78.4844C71.5234 78.224 70.8073 78 70.4062 77.8125C70.0104 77.6198 69.7083 77.3568 69.5 77.0234C69.2969 76.6849 69.1953 76.3125 69.1953 75.9062C69.1953 75.5365 69.2786 75.1953 69.4453 74.8828C69.6172 74.5651 69.849 74.3021 70.1406 74.0938C70.3594 73.9323 70.6562 73.7969 71.0312 73.6875C71.4115 73.5729 71.8177 73.5156 72.25 73.5156C72.901 73.5156 73.4714 73.6094 73.9609 73.7969C74.4557 73.9844 74.8203 74.2396 75.0547 74.5625C75.2891 74.8802 75.4505 75.3073 75.5391 75.8438L74.1641 76.0312C74.1016 75.6042 73.9193 75.2708 73.6172 75.0312C73.3203 74.7917 72.8984 74.6719 72.3516 74.6719C71.7057 74.6719 71.2448 74.7786 70.9688 74.9922C70.6927 75.2057 70.5547 75.4557 70.5547 75.7422C70.5547 75.9245 70.612 76.0885 70.7266 76.2344C70.8411 76.3854 71.0208 76.5104 71.2656 76.6094C71.4062 76.6615 71.8203 76.7812 72.5078 76.9688C73.5026 77.2344 74.1953 77.4531 74.5859 77.625C74.9818 77.7917 75.2917 78.0365 75.5156 78.3594C75.7396 78.6823 75.8516 79.0833 75.8516 79.5625C75.8516 80.0312 75.7135 80.474 75.4375 80.8906C75.1667 81.3021 74.7734 81.6224 74.2578 81.8516C73.7422 82.0755 73.1589 82.1875 72.5078 82.1875C71.4297 82.1875 70.6068 81.9635 70.0391 81.5156C69.4766 81.0677 69.1172 80.4036 68.9609 79.5234ZM80.5938 80.7422L80.7969 81.9844C80.401 82.0677 80.0469 82.1094 79.7344 82.1094C79.224 82.1094 78.8281 82.0286 78.5469 81.8672C78.2656 81.7057 78.0677 81.4948 77.9531 81.2344C77.8385 80.9688 77.7812 80.4141 77.7812 79.5703V74.7969H76.75V73.7031H77.7812V71.6484L79.1797 70.8047V73.7031H80.5938V74.7969H79.1797V79.6484C79.1797 80.0495 79.2031 80.3073 79.25 80.4219C79.3021 80.5365 79.3828 80.6276 79.4922 80.6953C79.6068 80.763 79.7682 80.7969 79.9766 80.7969C80.1328 80.7969 80.3385 80.7786 80.5938 80.7422ZM87.6562 79.3281L89.1094 79.5078C88.8802 80.3568 88.4557 81.0156 87.8359 81.4844C87.2161 81.9531 86.4245 82.1875 85.4609 82.1875C84.2474 82.1875 83.2839 81.8151 82.5703 81.0703C81.862 80.3203 81.5078 79.2708 81.5078 77.9219C81.5078 76.526 81.8672 75.4427 82.5859 74.6719C83.3047 73.901 84.237 73.5156 85.3828 73.5156C86.4922 73.5156 87.3984 73.8932 88.1016 74.6484C88.8047 75.4036 89.1562 76.4661 89.1562 77.8359C89.1562 77.9193 89.1536 78.0443 89.1484 78.2109H82.9609C83.013 79.1224 83.2708 79.8203 83.7344 80.3047C84.1979 80.7891 84.776 81.0312 85.4688 81.0312C85.9844 81.0312 86.4245 80.8958 86.7891 80.625C87.1536 80.3542 87.4427 79.9219 87.6562 79.3281ZM83.0391 77.0547H87.6719C87.6094 76.3568 87.4323 75.8333 87.1406 75.4844C86.6927 74.9427 86.112 74.6719 85.3984 74.6719C84.7526 74.6719 84.2083 74.888 83.7656 75.3203C83.3281 75.7526 83.0859 76.3307 83.0391 77.0547ZM90.8828 82V73.7031H92.1484V74.8828C92.7578 73.9714 93.638 73.5156 94.7891 73.5156C95.2891 73.5156 95.7474 73.6068 96.1641 73.7891C96.5859 73.9661 96.901 74.2005 97.1094 74.4922C97.3177 74.7839 97.4635 75.1302 97.5469 75.5312C97.599 75.7917 97.625 76.2474 97.625 76.8984V82H96.2188V76.9531C96.2188 76.3802 96.1641 75.9531 96.0547 75.6719C95.9453 75.3854 95.75 75.1589 95.4688 74.9922C95.1927 74.8203 94.8672 74.7344 94.4922 74.7344C93.8932 74.7344 93.375 74.9245 92.9375 75.3047C92.5052 75.6849 92.2891 76.4062 92.2891 77.4688V82H90.8828ZM102.859 80.7422L103.062 81.9844C102.667 82.0677 102.312 82.1094 102 82.1094C101.49 82.1094 101.094 82.0286 100.812 81.8672C100.531 81.7057 100.333 81.4948 100.219 81.2344C100.104 80.9688 100.047 80.4141 100.047 79.5703V74.7969H99.0156V73.7031H100.047V71.6484L101.445 70.8047V73.7031H102.859V74.7969H101.445V79.6484C101.445 80.0495 101.469 80.3073 101.516 80.4219C101.568 80.5365 101.648 80.6276 101.758 80.6953C101.872 80.763 102.034 80.7969 102.242 80.7969C102.398 80.7969 102.604 80.7786 102.859 80.7422ZM104.641 82V80.3984H106.242V82H104.641ZM113.586 82V70.5469H115.102V82H113.586ZM117.609 82V70.5469H119.016V77.0781L122.344 73.7031H124.164L120.992 76.7812L124.484 82H122.75L120.008 77.7578L119.016 78.7109V82H117.609ZM130.055 82V70.5469H131.461V74.6562C132.117 73.8958 132.945 73.5156 133.945 73.5156C134.56 73.5156 135.094 73.638 135.547 73.8828C136 74.1224 136.323 74.4557 136.516 74.8828C136.714 75.3099 136.812 75.9297 136.812 76.7422V82H135.406V76.7422C135.406 76.0391 135.253 75.5286 134.945 75.2109C134.643 74.888 134.214 74.7266 133.656 74.7266C133.24 74.7266 132.846 74.8359 132.477 75.0547C132.112 75.2682 131.852 75.5599 131.695 75.9297C131.539 76.2995 131.461 76.8099 131.461 77.4609V82H130.055ZM144.641 79.3281L146.094 79.5078C145.865 80.3568 145.44 81.0156 144.82 81.4844C144.201 81.9531 143.409 82.1875 142.445 82.1875C141.232 82.1875 140.268 81.8151 139.555 81.0703C138.846 80.3203 138.492 79.2708 138.492 77.9219C138.492 76.526 138.852 75.4427 139.57 74.6719C140.289 73.901 141.221 73.5156 142.367 73.5156C143.477 73.5156 144.383 73.8932 145.086 74.6484C145.789 75.4036 146.141 76.4661 146.141 77.8359C146.141 77.9193 146.138 78.0443 146.133 78.2109H139.945C139.997 79.1224 140.255 79.8203 140.719 80.3047C141.182 80.7891 141.76 81.0312 142.453 81.0312C142.969 81.0312 143.409 80.8958 143.773 80.625C144.138 80.3542 144.427 79.9219 144.641 79.3281ZM140.023 77.0547H144.656C144.594 76.3568 144.417 75.8333 144.125 75.4844C143.677 74.9427 143.096 74.6719 142.383 74.6719C141.737 74.6719 141.193 74.888 140.75 75.3203C140.312 75.7526 140.07 76.3307 140.023 77.0547ZM147.836 82V70.5469H149.242V82H147.836ZM151.43 85.1797V73.7031H152.711V74.7812C153.013 74.3594 153.354 74.0443 153.734 73.8359C154.115 73.6224 154.576 73.5156 155.117 73.5156C155.826 73.5156 156.451 73.6979 156.992 74.0625C157.534 74.4271 157.943 74.9427 158.219 75.6094C158.495 76.2708 158.633 76.9974 158.633 77.7891C158.633 78.638 158.479 79.4036 158.172 80.0859C157.87 80.763 157.427 81.2839 156.844 81.6484C156.266 82.0078 155.656 82.1875 155.016 82.1875C154.547 82.1875 154.125 82.0885 153.75 81.8906C153.38 81.6927 153.076 81.4427 152.836 81.1406V85.1797H151.43ZM152.703 77.8984C152.703 78.9661 152.919 79.7552 153.352 80.2656C153.784 80.776 154.307 81.0312 154.922 81.0312C155.547 81.0312 156.081 80.7682 156.523 80.2422C156.971 79.7109 157.195 78.8906 157.195 77.7812C157.195 76.724 156.977 75.9323 156.539 75.4062C156.107 74.8802 155.589 74.6172 154.984 74.6172C154.385 74.6172 153.854 74.8984 153.391 75.4609C152.932 76.0182 152.703 76.8307 152.703 77.8984ZM170.227 82V80.7812C169.581 81.7188 168.703 82.1875 167.594 82.1875C167.104 82.1875 166.646 82.0938 166.219 81.9062C165.797 81.7188 165.482 81.4844 165.273 81.2031C165.07 80.9167 164.927 80.5677 164.844 80.1562C164.786 79.8802 164.758 79.4427 164.758 78.8438V73.7031H166.164V78.3047C166.164 79.0391 166.193 79.5339 166.25 79.7891C166.339 80.1589 166.526 80.4505 166.812 80.6641C167.099 80.8724 167.453 80.9766 167.875 80.9766C168.297 80.9766 168.693 80.8698 169.062 80.6562C169.432 80.4375 169.693 80.1432 169.844 79.7734C170 79.3984 170.078 78.8568 170.078 78.1484V73.7031H171.484V82H170.227ZM177.625 77.8516C177.625 76.3151 178.052 75.1771 178.906 74.4375C179.62 73.8229 180.49 73.5156 181.516 73.5156C182.656 73.5156 183.589 73.8906 184.312 74.6406C185.036 75.3854 185.398 76.4167 185.398 77.7344C185.398 78.8021 185.237 79.6432 184.914 80.2578C184.596 80.8672 184.13 81.3411 183.516 81.6797C182.906 82.0182 182.24 82.1875 181.516 82.1875C180.354 82.1875 179.414 81.8151 178.695 81.0703C177.982 80.3255 177.625 79.2526 177.625 77.8516ZM179.07 77.8516C179.07 78.9141 179.302 79.7109 179.766 80.2422C180.229 80.7682 180.812 81.0312 181.516 81.0312C182.214 81.0312 182.794 80.7656 183.258 80.2344C183.721 79.7031 183.953 78.8932 183.953 77.8047C183.953 76.7786 183.719 76.0026 183.25 75.4766C182.786 74.9453 182.208 74.6797 181.516 74.6797C180.812 74.6797 180.229 74.9427 179.766 75.4688C179.302 75.9948 179.07 76.7891 179.07 77.8516ZM187.055 82V73.7031H188.312V74.8672C188.573 74.4609 188.919 74.1354 189.352 73.8906C189.784 73.6406 190.276 73.5156 190.828 73.5156C191.443 73.5156 191.945 73.6432 192.336 73.8984C192.732 74.1536 193.01 74.5104 193.172 74.9688C193.828 74 194.682 73.5156 195.734 73.5156C196.557 73.5156 197.19 73.7448 197.633 74.2031C198.076 74.6562 198.297 75.3568 198.297 76.3047V82H196.898V76.7734C196.898 76.2109 196.852 75.8073 196.758 75.5625C196.669 75.3125 196.505 75.112 196.266 74.9609C196.026 74.8099 195.745 74.7344 195.422 74.7344C194.839 74.7344 194.354 74.9297 193.969 75.3203C193.583 75.7057 193.391 76.3255 193.391 77.1797V82H191.984V76.6094C191.984 75.9844 191.87 75.5156 191.641 75.2031C191.411 74.8906 191.036 74.7344 190.516 74.7344C190.12 74.7344 189.753 74.8385 189.414 75.0469C189.081 75.2552 188.839 75.5599 188.688 75.9609C188.536 76.362 188.461 76.9401 188.461 77.6953V82H187.055ZM210.25 80.9766C209.729 81.4193 209.227 81.7318 208.742 81.9141C208.263 82.0964 207.747 82.1875 207.195 82.1875C206.284 82.1875 205.583 81.9661 205.094 81.5234C204.604 81.0755 204.359 80.5052 204.359 79.8125C204.359 79.4062 204.451 79.0365 204.633 78.7031C204.82 78.3646 205.062 78.0938 205.359 77.8906C205.661 77.6875 206 77.5339 206.375 77.4297C206.651 77.3568 207.068 77.2865 207.625 77.2188C208.76 77.0833 209.596 76.9219 210.133 76.7344C210.138 76.5417 210.141 76.4193 210.141 76.3672C210.141 75.7943 210.008 75.3906 209.742 75.1562C209.383 74.8385 208.849 74.6797 208.141 74.6797C207.479 74.6797 206.99 74.7969 206.672 75.0312C206.359 75.2604 206.128 75.6693 205.977 76.2578L204.602 76.0703C204.727 75.4818 204.932 75.0078 205.219 74.6484C205.505 74.2839 205.919 74.0052 206.461 73.8125C207.003 73.6146 207.63 73.5156 208.344 73.5156C209.052 73.5156 209.628 73.599 210.07 73.7656C210.513 73.9323 210.839 74.1432 211.047 74.3984C211.255 74.6484 211.401 74.9661 211.484 75.3516C211.531 75.5911 211.555 76.0234 211.555 76.6484V78.5234C211.555 79.8307 211.583 80.6589 211.641 81.0078C211.703 81.3516 211.823 81.6823 212 82H210.531C210.385 81.7083 210.292 81.3672 210.25 80.9766ZM210.133 77.8359C209.622 78.0443 208.857 78.2214 207.836 78.3672C207.258 78.4505 206.849 78.5443 206.609 78.6484C206.37 78.7526 206.185 78.9062 206.055 79.1094C205.924 79.3073 205.859 79.5286 205.859 79.7734C205.859 80.1484 206 80.4609 206.281 80.7109C206.568 80.9609 206.984 81.0859 207.531 81.0859C208.073 81.0859 208.555 80.9688 208.977 80.7344C209.398 80.4948 209.708 80.1693 209.906 79.7578C210.057 79.4401 210.133 78.9714 210.133 78.3516V77.8359ZM213.711 82V70.5469H215.117V82H213.711ZM217.273 82V70.5469H218.68V82H217.273ZM226.547 79.3281L228 79.5078C227.771 80.3568 227.346 81.0156 226.727 81.4844C226.107 81.9531 225.315 82.1875 224.352 82.1875C223.138 82.1875 222.174 81.8151 221.461 81.0703C220.753 80.3203 220.398 79.2708 220.398 77.9219C220.398 76.526 220.758 75.4427 221.477 74.6719C222.195 73.901 223.128 73.5156 224.273 73.5156C225.383 73.5156 226.289 73.8932 226.992 74.6484C227.695 75.4036 228.047 76.4661 228.047 77.8359C228.047 77.9193 228.044 78.0443 228.039 78.2109H221.852C221.904 79.1224 222.161 79.8203 222.625 80.3047C223.089 80.7891 223.667 81.0312 224.359 81.0312C224.875 81.0312 225.315 80.8958 225.68 80.625C226.044 80.3542 226.333 79.9219 226.547 79.3281ZM221.93 77.0547H226.562C226.5 76.3568 226.323 75.8333 226.031 75.4844C225.583 74.9427 225.003 74.6719 224.289 74.6719C223.643 74.6719 223.099 74.888 222.656 75.3203C222.219 75.7526 221.977 76.3307 221.93 77.0547ZM229.211 79.5234L230.602 79.3047C230.68 79.862 230.896 80.2891 231.25 80.5859C231.609 80.8828 232.109 81.0312 232.75 81.0312C233.396 81.0312 233.875 80.901 234.188 80.6406C234.5 80.375 234.656 80.0651 234.656 79.7109C234.656 79.3932 234.518 79.1432 234.242 78.9609C234.049 78.8359 233.57 78.6771 232.805 78.4844C231.773 78.224 231.057 78 230.656 77.8125C230.26 77.6198 229.958 77.3568 229.75 77.0234C229.547 76.6849 229.445 76.3125 229.445 75.9062C229.445 75.5365 229.529 75.1953 229.695 74.8828C229.867 74.5651 230.099 74.3021 230.391 74.0938C230.609 73.9323 230.906 73.7969 231.281 73.6875C231.661 73.5729 232.068 73.5156 232.5 73.5156C233.151 73.5156 233.721 73.6094 234.211 73.7969C234.706 73.9844 235.07 74.2396 235.305 74.5625C235.539 74.8802 235.701 75.3073 235.789 75.8438L234.414 76.0312C234.352 75.6042 234.169 75.2708 233.867 75.0312C233.57 74.7917 233.148 74.6719 232.602 74.6719C231.956 74.6719 231.495 74.7786 231.219 74.9922C230.943 75.2057 230.805 75.4557 230.805 75.7422C230.805 75.9245 230.862 76.0885 230.977 76.2344C231.091 76.3854 231.271 76.5104 231.516 76.6094C231.656 76.6615 232.07 76.7812 232.758 76.9688C233.753 77.2344 234.445 77.4531 234.836 77.625C235.232 77.7917 235.542 78.0365 235.766 78.3594C235.99 78.6823 236.102 79.0833 236.102 79.5625C236.102 80.0312 235.964 80.474 235.688 80.8906C235.417 81.3021 235.023 81.6224 234.508 81.8516C233.992 82.0755 233.409 82.1875 232.758 82.1875C231.68 82.1875 230.857 81.9635 230.289 81.5156C229.727 81.0677 229.367 80.4036 229.211 79.5234ZM44.125 98.7422L44.3281 99.9844C43.9323 100.068 43.5781 100.109 43.2656 100.109C42.7552 100.109 42.3594 100.029 42.0781 99.8672C41.7969 99.7057 41.599 99.4948 41.4844 99.2344C41.3698 98.9688 41.3125 98.4141 41.3125 97.5703V92.7969H40.2812V91.7031H41.3125V89.6484L42.7109 88.8047V91.7031H44.125V92.7969H42.7109V97.6484C42.7109 98.0495 42.7344 98.3073 42.7812 98.4219C42.8333 98.5365 42.9141 98.6276 43.0234 98.6953C43.138 98.763 43.2995 98.7969 43.5078 98.7969C43.6641 98.7969 43.8698 98.7786 44.125 98.7422ZM51.1875 97.3281L52.6406 97.5078C52.4115 98.3568 51.987 99.0156 51.3672 99.4844C50.7474 99.9531 49.9557 100.188 48.9922 100.188C47.7786 100.188 46.8151 99.8151 46.1016 99.0703C45.3932 98.3203 45.0391 97.2708 45.0391 95.9219C45.0391 94.526 45.3984 93.4427 46.1172 92.6719C46.8359 91.901 47.7682 91.5156 48.9141 91.5156C50.0234 91.5156 50.9297 91.8932 51.6328 92.6484C52.3359 93.4036 52.6875 94.4661 52.6875 95.8359C52.6875 95.9193 52.6849 96.0443 52.6797 96.2109H46.4922C46.5443 97.1224 46.8021 97.8203 47.2656 98.3047C47.7292 98.7891 48.3073 99.0312 49 99.0312C49.5156 99.0312 49.9557 98.8958 50.3203 98.625C50.6849 98.3542 50.974 97.9219 51.1875 97.3281ZM46.5703 95.0547H51.2031C51.1406 94.3568 50.9635 93.8333 50.6719 93.4844C50.224 92.9427 49.6432 92.6719 48.9297 92.6719C48.2839 92.6719 47.7396 92.888 47.2969 93.3203C46.8594 93.7526 46.6172 94.3307 46.5703 95.0547ZM61.1719 100L58.0156 91.7031H59.5L61.2812 96.6719C61.474 97.2083 61.651 97.7656 61.8125 98.3438C61.9375 97.9062 62.112 97.3802 62.3359 96.7656L64.1797 91.7031H65.625L62.4844 100H61.1719ZM72.2812 98.9766C71.7604 99.4193 71.2578 99.7318 70.7734 99.9141C70.2943 100.096 69.7786 100.188 69.2266 100.188C68.3151 100.188 67.6146 99.9661 67.125 99.5234C66.6354 99.0755 66.3906 98.5052 66.3906 97.8125C66.3906 97.4062 66.4818 97.0365 66.6641 96.7031C66.8516 96.3646 67.0938 96.0938 67.3906 95.8906C67.6927 95.6875 68.0312 95.5339 68.4062 95.4297C68.6823 95.3568 69.099 95.2865 69.6562 95.2188C70.7917 95.0833 71.6276 94.9219 72.1641 94.7344C72.1693 94.5417 72.1719 94.4193 72.1719 94.3672C72.1719 93.7943 72.0391 93.3906 71.7734 93.1562C71.4141 92.8385 70.8802 92.6797 70.1719 92.6797C69.5104 92.6797 69.0208 92.7969 68.7031 93.0312C68.3906 93.2604 68.1589 93.6693 68.0078 94.2578L66.6328 94.0703C66.7578 93.4818 66.9635 93.0078 67.25 92.6484C67.5365 92.2839 67.9505 92.0052 68.4922 91.8125C69.0339 91.6146 69.6615 91.5156 70.375 91.5156C71.0833 91.5156 71.6589 91.599 72.1016 91.7656C72.5443 91.9323 72.8698 92.1432 73.0781 92.3984C73.2865 92.6484 73.4323 92.9661 73.5156 93.3516C73.5625 93.5911 73.5859 94.0234 73.5859 94.6484V96.5234C73.5859 97.8307 73.6146 98.6589 73.6719 99.0078C73.7344 99.3516 73.8542 99.6823 74.0312 100H72.5625C72.4167 99.7083 72.3229 99.3672 72.2812 98.9766ZM72.1641 95.8359C71.6536 96.0443 70.888 96.2214 69.8672 96.3672C69.2891 96.4505 68.8802 96.5443 68.6406 96.6484C68.401 96.7526 68.2161 96.9062 68.0859 97.1094C67.9557 97.3073 67.8906 97.5286 67.8906 97.7734C67.8906 98.1484 68.0312 98.4609 68.3125 98.7109C68.599 98.9609 69.0156 99.0859 69.5625 99.0859C70.1042 99.0859 70.5859 98.9688 71.0078 98.7344C71.4297 98.4948 71.7396 98.1693 71.9375 97.7578C72.0885 97.4401 72.1641 96.9714 72.1641 96.3516V95.8359ZM75.7734 100V91.7031H77.0391V92.8828C77.6484 91.9714 78.5286 91.5156 79.6797 91.5156C80.1797 91.5156 80.638 91.6068 81.0547 91.7891C81.4766 91.9661 81.7917 92.2005 82 92.4922C82.2083 92.7839 82.3542 93.1302 82.4375 93.5312C82.4896 93.7917 82.5156 94.2474 82.5156 94.8984V100H81.1094V94.9531C81.1094 94.3802 81.0547 93.9531 80.9453 93.6719C80.8359 93.3854 80.6406 93.1589 80.3594 92.9922C80.0833 92.8203 79.7578 92.7344 79.3828 92.7344C78.7839 92.7344 78.2656 92.9245 77.8281 93.3047C77.3958 93.6849 77.1797 94.4062 77.1797 95.4688V100H75.7734ZM94.5156 100V98.9531C93.9896 99.776 93.2161 100.188 92.1953 100.188C91.5339 100.188 90.9245 100.005 90.3672 99.6406C89.8151 99.276 89.3854 98.7682 89.0781 98.1172C88.776 97.4609 88.625 96.7083 88.625 95.8594C88.625 95.0312 88.763 94.2812 89.0391 93.6094C89.3151 92.9323 89.7292 92.4141 90.2812 92.0547C90.8333 91.6953 91.4505 91.5156 92.1328 91.5156C92.6328 91.5156 93.0781 91.6224 93.4688 91.8359C93.8594 92.0443 94.1771 92.3177 94.4219 92.6562V88.5469H95.8203V100H94.5156ZM90.0703 95.8594C90.0703 96.9219 90.2943 97.7161 90.7422 98.2422C91.1901 98.7682 91.7188 99.0312 92.3281 99.0312C92.9427 99.0312 93.4635 98.7812 93.8906 98.2812C94.3229 97.776 94.5391 97.0078 94.5391 95.9766C94.5391 94.8411 94.3203 94.0078 93.8828 93.4766C93.4453 92.9453 92.9062 92.6797 92.2656 92.6797C91.6406 92.6797 91.1172 92.9349 90.6953 93.4453C90.2786 93.9557 90.0703 94.7604 90.0703 95.8594ZM103.719 97.3281L105.172 97.5078C104.943 98.3568 104.518 99.0156 103.898 99.4844C103.279 99.9531 102.487 100.188 101.523 100.188C100.31 100.188 99.3464 99.8151 98.6328 99.0703C97.9245 98.3203 97.5703 97.2708 97.5703 95.9219C97.5703 94.526 97.9297 93.4427 98.6484 92.6719C99.3672 91.901 100.299 91.5156 101.445 91.5156C102.555 91.5156 103.461 91.8932 104.164 92.6484C104.867 93.4036 105.219 94.4661 105.219 95.8359C105.219 95.9193 105.216 96.0443 105.211 96.2109H99.0234C99.0755 97.1224 99.3333 97.8203 99.7969 98.3047C100.26 98.7891 100.839 99.0312 101.531 99.0312C102.047 99.0312 102.487 98.8958 102.852 98.625C103.216 98.3542 103.505 97.9219 103.719 97.3281ZM99.1016 95.0547H103.734C103.672 94.3568 103.495 93.8333 103.203 93.4844C102.755 92.9427 102.174 92.6719 101.461 92.6719C100.815 92.6719 100.271 92.888 99.8281 93.3203C99.3906 93.7526 99.1484 94.3307 99.1016 95.0547ZM110.875 95.8516C110.875 94.3151 111.302 93.1771 112.156 92.4375C112.87 91.8229 113.74 91.5156 114.766 91.5156C115.906 91.5156 116.839 91.8906 117.562 92.6406C118.286 93.3854 118.648 94.4167 118.648 95.7344C118.648 96.8021 118.487 97.6432 118.164 98.2578C117.846 98.8672 117.38 99.3411 116.766 99.6797C116.156 100.018 115.49 100.188 114.766 100.188C113.604 100.188 112.664 99.8151 111.945 99.0703C111.232 98.3255 110.875 97.2526 110.875 95.8516ZM112.32 95.8516C112.32 96.9141 112.552 97.7109 113.016 98.2422C113.479 98.7682 114.062 99.0312 114.766 99.0312C115.464 99.0312 116.044 98.7656 116.508 98.2344C116.971 97.7031 117.203 96.8932 117.203 95.8047C117.203 94.7786 116.969 94.0026 116.5 93.4766C116.036 92.9453 115.458 92.6797 114.766 92.6797C114.062 92.6797 113.479 92.9427 113.016 93.4688C112.552 93.9948 112.32 94.7891 112.32 95.8516ZM121.602 100H120.297V88.5469H121.703V92.6328C122.297 91.888 123.055 91.5156 123.977 91.5156C124.487 91.5156 124.969 91.6198 125.422 91.8281C125.88 92.0312 126.255 92.3203 126.547 92.6953C126.844 93.0651 127.076 93.513 127.242 94.0391C127.409 94.5651 127.492 95.1276 127.492 95.7266C127.492 97.1484 127.141 98.2474 126.438 99.0234C125.734 99.7995 124.891 100.188 123.906 100.188C122.927 100.188 122.159 99.7786 121.602 98.9609V100ZM121.586 95.7891C121.586 96.7839 121.721 97.5026 121.992 97.9453C122.435 98.6693 123.034 99.0312 123.789 99.0312C124.404 99.0312 124.935 98.7656 125.383 98.2344C125.831 97.6979 126.055 96.901 126.055 95.8438C126.055 94.7604 125.839 93.9609 125.406 93.4453C124.979 92.9297 124.461 92.6719 123.852 92.6719C123.237 92.6719 122.706 92.9401 122.258 93.4766C121.81 94.0078 121.586 94.7786 121.586 95.7891ZM134.625 98.9766C134.104 99.4193 133.602 99.7318 133.117 99.9141C132.638 100.096 132.122 100.188 131.57 100.188C130.659 100.188 129.958 99.9661 129.469 99.5234C128.979 99.0755 128.734 98.5052 128.734 97.8125C128.734 97.4062 128.826 97.0365 129.008 96.7031C129.195 96.3646 129.438 96.0938 129.734 95.8906C130.036 95.6875 130.375 95.5339 130.75 95.4297C131.026 95.3568 131.443 95.2865 132 95.2188C133.135 95.0833 133.971 94.9219 134.508 94.7344C134.513 94.5417 134.516 94.4193 134.516 94.3672C134.516 93.7943 134.383 93.3906 134.117 93.1562C133.758 92.8385 133.224 92.6797 132.516 92.6797C131.854 92.6797 131.365 92.7969 131.047 93.0312C130.734 93.2604 130.503 93.6693 130.352 94.2578L128.977 94.0703C129.102 93.4818 129.307 93.0078 129.594 92.6484C129.88 92.2839 130.294 92.0052 130.836 91.8125C131.378 91.6146 132.005 91.5156 132.719 91.5156C133.427 91.5156 134.003 91.599 134.445 91.7656C134.888 91.9323 135.214 92.1432 135.422 92.3984C135.63 92.6484 135.776 92.9661 135.859 93.3516C135.906 93.5911 135.93 94.0234 135.93 94.6484V96.5234C135.93 97.8307 135.958 98.6589 136.016 99.0078C136.078 99.3516 136.198 99.6823 136.375 100H134.906C134.76 99.7083 134.667 99.3672 134.625 98.9766ZM134.508 95.8359C133.997 96.0443 133.232 96.2214 132.211 96.3672C131.633 96.4505 131.224 96.5443 130.984 96.6484C130.745 96.7526 130.56 96.9062 130.43 97.1094C130.299 97.3073 130.234 97.5286 130.234 97.7734C130.234 98.1484 130.375 98.4609 130.656 98.7109C130.943 98.9609 131.359 99.0859 131.906 99.0859C132.448 99.0859 132.93 98.9688 133.352 98.7344C133.773 98.4948 134.083 98.1693 134.281 97.7578C134.432 97.4401 134.508 96.9714 134.508 96.3516V95.8359ZM149.328 100L146.172 91.7031H147.656L149.438 96.6719C149.63 97.2083 149.807 97.7656 149.969 98.3438C150.094 97.9062 150.268 97.3802 150.492 96.7656L152.336 91.7031H153.781L150.641 100H149.328ZM155.031 90.1641V88.5469H156.438V90.1641H155.031ZM155.031 100V91.7031H156.438V100H155.031ZM158.586 100V91.7031H159.852V92.8828C160.461 91.9714 161.341 91.5156 162.492 91.5156C162.992 91.5156 163.451 91.6068 163.867 91.7891C164.289 91.9661 164.604 92.2005 164.812 92.4922C165.021 92.7839 165.167 93.1302 165.25 93.5312C165.302 93.7917 165.328 94.2474 165.328 94.8984V100H163.922V94.9531C163.922 94.3802 163.867 93.9531 163.758 93.6719C163.648 93.3854 163.453 93.1589 163.172 92.9922C162.896 92.8203 162.57 92.7344 162.195 92.7344C161.596 92.7344 161.078 92.9245 160.641 93.3047C160.208 93.6849 159.992 94.4062 159.992 95.4688V100H158.586ZM172.875 100V98.9531C172.349 99.776 171.576 100.188 170.555 100.188C169.893 100.188 169.284 100.005 168.727 99.6406C168.174 99.276 167.745 98.7682 167.438 98.1172C167.135 97.4609 166.984 96.7083 166.984 95.8594C166.984 95.0312 167.122 94.2812 167.398 93.6094C167.674 92.9323 168.089 92.4141 168.641 92.0547C169.193 91.6953 169.81 91.5156 170.492 91.5156C170.992 91.5156 171.438 91.6224 171.828 91.8359C172.219 92.0443 172.536 92.3177 172.781 92.6562V88.5469H174.18V100H172.875ZM168.43 95.8594C168.43 96.9219 168.654 97.7161 169.102 98.2422C169.549 98.7682 170.078 99.0312 170.688 99.0312C171.302 99.0312 171.823 98.7812 172.25 98.2812C172.682 97.776 172.898 97.0078 172.898 95.9766C172.898 94.8411 172.68 94.0078 172.242 93.4766C171.805 92.9453 171.266 92.6797 170.625 92.6797C170 92.6797 169.477 92.9349 169.055 93.4453C168.638 93.9557 168.43 94.7604 168.43 95.8594ZM182.078 97.3281L183.531 97.5078C183.302 98.3568 182.878 99.0156 182.258 99.4844C181.638 99.9531 180.846 100.188 179.883 100.188C178.669 100.188 177.706 99.8151 176.992 99.0703C176.284 98.3203 175.93 97.2708 175.93 95.9219C175.93 94.526 176.289 93.4427 177.008 92.6719C177.727 91.901 178.659 91.5156 179.805 91.5156C180.914 91.5156 181.82 91.8932 182.523 92.6484C183.227 93.4036 183.578 94.4661 183.578 95.8359C183.578 95.9193 183.576 96.0443 183.57 96.2109H177.383C177.435 97.1224 177.693 97.8203 178.156 98.3047C178.62 98.7891 179.198 99.0312 179.891 99.0312C180.406 99.0312 180.846 98.8958 181.211 98.625C181.576 98.3542 181.865 97.9219 182.078 97.3281ZM177.461 95.0547H182.094C182.031 94.3568 181.854 93.8333 181.562 93.4844C181.115 92.9427 180.534 92.6719 179.82 92.6719C179.174 92.6719 178.63 92.888 178.188 93.3203C177.75 93.7526 177.508 94.3307 177.461 95.0547ZM185.305 100V91.7031H186.57V92.8828C187.18 91.9714 188.06 91.5156 189.211 91.5156C189.711 91.5156 190.169 91.6068 190.586 91.7891C191.008 91.9661 191.323 92.2005 191.531 92.4922C191.74 92.7839 191.885 93.1302 191.969 93.5312C192.021 93.7917 192.047 94.2474 192.047 94.8984V100H190.641V94.9531C190.641 94.3802 190.586 93.9531 190.477 93.6719C190.367 93.3854 190.172 93.1589 189.891 92.9922C189.615 92.8203 189.289 92.7344 188.914 92.7344C188.315 92.7344 187.797 92.9245 187.359 93.3047C186.927 93.6849 186.711 94.4062 186.711 95.4688V100H185.305Z" fill="black"/>
<path d="M0 170L16.7586 97C28.4244 124.624 46.1711 137.03 81 152C36.0344 137.226 19.7065 143.468 0 170Z" fill="#A6BED2"/>
</svg>
