<svg width="50" height="50" viewBox="0 0 80 76" fill="none" xmlns="http://www.w3.org/2000/svg">
<ellipse cx="40" cy="38" rx="40" ry="38" fill="#136FBC"/>
<path d="M37.6989 33.6364V33.483C37.7159 31.8551 37.8864 30.5597 38.2102 29.5966C38.5341 28.6335 38.9943 27.8537 39.5909 27.2571C40.1875 26.6605 40.9034 26.1108 41.7386 25.608C42.2415 25.3011 42.6932 24.9389 43.0938 24.5213C43.4943 24.0952 43.8097 23.6051 44.0398 23.0511C44.2784 22.4972 44.3977 21.8835 44.3977 21.2102C44.3977 20.375 44.2017 19.6506 43.8097 19.0369C43.4176 18.4233 42.8935 17.9503 42.2372 17.6179C41.581 17.2855 40.8523 17.1193 40.0511 17.1193C39.3523 17.1193 38.679 17.2642 38.0312 17.554C37.3835 17.8437 36.8423 18.2997 36.4077 18.9219C35.973 19.544 35.7216 20.358 35.6534 21.3636H32.4318C32.5 19.9148 32.875 18.6747 33.5568 17.6435C34.2472 16.6122 35.1548 15.8239 36.2798 15.2784C37.4134 14.733 38.6705 14.4602 40.0511 14.4602C41.5511 14.4602 42.8551 14.7585 43.9631 15.3551C45.0795 15.9517 45.9403 16.7699 46.5455 17.8097C47.1591 18.8494 47.4659 20.0341 47.4659 21.3636C47.4659 22.3011 47.321 23.1491 47.0312 23.9077C46.75 24.6662 46.3409 25.3437 45.804 25.9403C45.2756 26.5369 44.6364 27.0653 43.8864 27.5256C43.1364 27.9943 42.5355 28.4886 42.0838 29.0085C41.6321 29.5199 41.304 30.1293 41.0994 30.8366C40.8949 31.544 40.7841 32.4261 40.767 33.483V33.6364H37.6989ZM39.3352 41.2045C38.7045 41.2045 38.1634 40.9787 37.7116 40.527C37.2599 40.0753 37.0341 39.5341 37.0341 38.9034C37.0341 38.2727 37.2599 37.7315 37.7116 37.2798C38.1634 36.8281 38.7045 36.6023 39.3352 36.6023C39.9659 36.6023 40.5071 36.8281 40.9588 37.2798C41.4105 37.7315 41.6364 38.2727 41.6364 38.9034C41.6364 39.321 41.5298 39.7045 41.3168 40.054C41.1122 40.4034 40.8352 40.6847 40.4858 40.8977C40.1449 41.1023 39.7614 41.2045 39.3352 41.2045Z" fill="white"/>
<path d="M28.4292 62.3247V53.019H34.8086V54.5933H30.3081V56.7959H34.1929V58.3701H30.3081V62.3247H28.4292ZM44.0317 62.3247H41.9878L41.1753 60.2109H37.4556L36.6875 62.3247H34.6943L38.3188 53.019H40.3057L44.0317 62.3247ZM40.5723 58.6431L39.29 55.1899L38.0332 58.6431H40.5723ZM52.5249 61.144C52.9862 61.4741 53.4876 61.7365 54.0293 61.9312L53.3374 63.2578C53.0539 63.1732 52.7767 63.0568 52.5059 62.9087C52.4466 62.8791 52.0298 62.604 51.2554 62.0835C50.646 62.3501 49.971 62.4834 49.2305 62.4834C47.8001 62.4834 46.6787 62.0623 45.8662 61.2202C45.0579 60.3781 44.6538 59.1953 44.6538 57.6719C44.6538 56.1527 45.0601 54.972 45.8726 54.1299C46.6851 53.2835 47.7874 52.8604 49.1797 52.8604C50.5592 52.8604 51.6532 53.2835 52.4614 54.1299C53.2697 54.972 53.6738 56.1527 53.6738 57.6719C53.6738 58.4759 53.5617 59.1826 53.3374 59.792C53.1681 60.2575 52.8973 60.7082 52.5249 61.144ZM51.0142 60.084C51.2554 59.8005 51.4352 59.4577 51.5537 59.0557C51.6764 58.6536 51.7378 58.1924 51.7378 57.6719C51.7378 56.597 51.5008 55.7951 51.0269 55.2661C50.5529 54.7329 49.9329 54.4663 49.167 54.4663C48.401 54.4663 47.779 54.7329 47.3008 55.2661C46.8268 55.7993 46.5898 56.6012 46.5898 57.6719C46.5898 58.7594 46.8268 59.5741 47.3008 60.1157C47.779 60.6532 48.382 60.9219 49.1099 60.9219C49.3807 60.9219 49.6367 60.8774 49.8779 60.7886C49.4971 60.5389 49.1099 60.3442 48.7163 60.2046L49.2432 59.1318C49.861 59.3434 50.4513 59.6608 51.0142 60.084Z" fill="white"/>
</svg>
