<svg width="60" height="28" viewBox="0 0 98 48" fill="none" xmlns="http://www.w3.org/2000/svg">
<path d="M0.921875 31.2031C0.921875 29.0156 1.46094 26.8984 2.53906 24.8516C3.61719 22.8047 5.14062 21.2422 7.10938 20.1641C9.09375 19.0859 11.3047 18.5469 13.7422 18.5469C17.5078 18.5469 20.5938 19.7734 23 22.2266C25.4062 24.6641 26.6094 27.75 26.6094 31.4844C26.6094 35.25 25.3906 38.375 22.9531 40.8594C20.5312 43.3281 17.4766 44.5625 13.7891 44.5625C11.5078 44.5625 9.32812 44.0469 7.25 43.0156C5.1875 41.9844 3.61719 40.4766 2.53906 38.4922C1.46094 36.4922 0.921875 34.0625 0.921875 31.2031ZM7.67188 31.5547C7.67188 34.0234 8.25781 35.9141 9.42969 37.2266C10.6016 38.5391 12.0469 39.1953 13.7656 39.1953C15.4844 39.1953 16.9219 38.5391 18.0781 37.2266C19.25 35.9141 19.8359 34.0078 19.8359 31.5078C19.8359 29.0703 19.25 27.1953 18.0781 25.8828C16.9219 24.5703 15.4844 23.9141 13.7656 23.9141C12.0469 23.9141 10.6016 24.5703 9.42969 25.8828C8.25781 27.1953 7.67188 29.0859 7.67188 31.5547Z" fill="#FF2E17"/>
<path d="M31.5227 47V0.454544H42.6364V18.0682H42.8636C43.3182 17.0076 43.9621 15.9848 44.7955 15C45.6439 14.0152 46.7197 13.2121 48.0227 12.5909C49.3409 11.9545 50.9167 11.6364 52.75 11.6364C55.1742 11.6364 57.4394 12.2727 59.5455 13.5455C61.6667 14.8182 63.3788 16.7803 64.6818 19.4318C65.9848 22.0833 66.6364 25.4621 66.6364 29.5682C66.6364 33.5227 66.0076 36.8333 64.75 39.5C63.5076 42.1667 61.8258 44.1667 59.7045 45.5C57.5985 46.8333 55.2576 47.5 52.6818 47.5C50.9242 47.5 49.4015 47.2121 48.1136 46.6364C46.8258 46.0606 45.7424 45.303 44.8636 44.3636C44 43.4242 43.3333 42.4167 42.8636 41.3409H42.5227V47H31.5227ZM42.4091 29.5455C42.4091 31.4242 42.6591 33.0606 43.1591 34.4545C43.6742 35.8485 44.4091 36.9318 45.3636 37.7045C46.3333 38.4621 47.4924 38.8409 48.8409 38.8409C50.2045 38.8409 51.3636 38.4621 52.3182 37.7045C53.2727 36.9318 53.9924 35.8485 54.4773 34.4545C54.9773 33.0606 55.2273 31.4242 55.2273 29.5455C55.2273 27.6667 54.9773 26.0379 54.4773 24.6591C53.9924 23.2803 53.2727 22.2121 52.3182 21.4545C51.3788 20.697 50.2197 20.3182 48.8409 20.3182C47.4773 20.3182 46.3182 20.6894 45.3636 21.4318C44.4091 22.1742 43.6742 23.2348 43.1591 24.6136C42.6591 25.9924 42.4091 27.6364 42.4091 29.5455Z" fill="#FF2E17"/>
<path d="M79.766 38.2139L78.6429 44.1887C76.2418 43.5133 74.4692 42.3545 73.3253 40.7122C72.1814 39.07 71.6216 36.6317 71.6459 33.3974C71.668 30.46 72.036 28.2731 72.7499 26.8366C73.4482 25.4002 74.3386 24.3937 75.4211 23.8171C76.488 23.225 78.4512 22.931 81.3106 22.9352L88.9975 23.0167C91.185 23.0199 92.803 22.9207 93.8514 22.7191C94.8843 22.5019 95.9967 22.1051 97.1885 21.5287L97.1395 28.0442C96.7007 28.2154 96.0507 28.4254 95.1894 28.6741C94.798 28.7829 94.5396 28.8607 94.4142 28.9074C95.4995 30.0339 96.3108 31.2382 96.848 32.5202C97.3853 33.8023 97.6484 35.1698 97.6375 36.6229C97.6183 39.1853 96.9077 41.2077 95.5059 42.69C94.1043 44.1566 92.3409 44.8884 90.216 44.8853C88.8097 44.8833 87.5622 44.5455 86.4735 43.872C85.3692 43.1986 84.5325 42.2599 83.9634 41.0559C83.3788 39.8363 82.8764 38.0856 82.456 35.8038C81.901 32.7249 81.378 30.5914 80.8869 29.4032L80.2307 29.4022C78.9651 29.4004 78.0643 29.7115 77.5283 30.3357C76.9768 30.9599 76.6945 32.1392 76.6814 33.8735C76.6726 35.0453 76.9001 35.9597 77.3639 36.6166C77.8121 37.2735 78.6128 37.806 79.766 38.2139ZM85.176 29.4095C85.4509 30.2536 85.7768 31.59 86.1537 33.4186C86.5306 35.2473 86.9044 36.4431 87.2752 37.0061C87.8781 37.8664 88.6483 38.2972 89.5858 38.2986C90.5077 38.2999 91.3071 37.9573 91.9842 37.2708C92.6612 36.5844 93.0037 35.7099 93.0117 34.6474C93.0206 33.4599 92.6385 32.3266 91.8654 31.2473C91.2776 30.4496 90.555 29.9251 89.6975 29.6739C89.1363 29.5012 88.0666 29.4137 86.4885 29.4114L85.176 29.4095Z" fill="#FF2E17"/>
</svg>
