<svg width="273" height="43" viewBox="0 0 273 43" fill="none" xmlns="http://www.w3.org/2000/svg">
<path d="M0.301924 7.28221C0.301924 6.48994 0.463979 5.80898 0.788088 5.23933C1.11547 4.67296 1.57053 4.2359 2.15328 3.92816C2.73929 3.6237 3.41861 3.47146 4.19124 3.47146C4.96714 3.47146 5.64646 3.6237 6.2292 3.92816C6.81522 4.2359 7.27028 4.67296 7.59439 5.23933C7.92177 5.80898 8.08547 6.48994 8.08547 7.28221C8.08546 8.07447 7.92177 8.75379 7.59439 9.32017C7.27028 9.88981 6.81522 10.3269 6.2292 10.6313C5.64646 10.9391 4.96714 11.0929 4.19124 11.0929C3.41861 11.0929 2.73929 10.9391 2.15328 10.6313C1.57053 10.3269 1.11547 9.88981 0.788088 9.32017C0.463979 8.75379 0.301924 8.07447 0.301924 7.28221ZM2.11399 7.29694C2.11399 7.58504 2.20238 7.82894 2.37917 8.02864C2.55596 8.22834 2.8015 8.38058 3.11578 8.48534C3.43007 8.59338 3.79347 8.64739 4.20597 8.64739C4.62502 8.64739 4.99169 8.59338 5.30598 8.48534C5.62027 8.38058 5.86581 8.22834 6.04259 8.02864C6.21938 7.82894 6.30777 7.58504 6.30777 7.29694C6.30777 6.99902 6.21938 6.74693 6.04259 6.54068C5.86581 6.3377 5.62027 6.1822 5.30598 6.07416C4.99169 5.9694 4.62502 5.91702 4.20597 5.91702C3.79347 5.91702 3.43007 5.9694 3.11578 6.07416C2.8015 6.1822 2.55596 6.3377 2.37917 6.54068C2.20238 6.74693 2.11399 6.99902 2.11399 7.29694Z" fill="#231F20"/>
<path d="M0.765625 12.3697L14.1753 12.3697L14.1753 15.5716L9.10081 15.5716L9.10081 15.637C9.40636 15.768 9.70101 15.9535 9.98474 16.1936C10.2685 16.438 10.4998 16.748 10.6788 17.1234C10.8621 17.5031 10.9538 17.9571 10.9538 18.4853C10.9538 19.1837 10.7705 19.8363 10.4038 20.443C10.0371 21.0541 9.47184 21.5474 8.70795 21.9228C7.94405 22.2982 6.97063 22.4859 5.78769 22.4859C4.64839 22.4859 3.69461 22.3047 2.92636 21.9424C2.1581 21.5845 1.5819 21.1 1.19777 20.4889C0.813641 19.8821 0.621576 19.2077 0.621576 18.4656C0.621576 17.9593 0.704513 17.5206 0.870387 17.1495C1.03626 16.7785 1.25452 16.4664 1.52515 16.2132C1.79579 15.9644 2.08607 15.7724 2.39599 15.637L2.39599 15.5388L0.765625 15.5388L0.765625 12.3697ZM5.79423 15.5061C5.25296 15.5061 4.78153 15.5781 4.37994 15.7222C3.97835 15.8706 3.66624 16.0823 3.44362 16.3573C3.22537 16.6366 3.11624 16.9706 3.11624 17.3591C3.11624 17.7519 3.22537 18.0859 3.44362 18.3609C3.66624 18.6359 3.97835 18.8432 4.37994 18.9829C4.78153 19.1269 5.25296 19.199 5.79423 19.199C6.33551 19.199 6.80476 19.1269 7.20198 18.9829C7.59921 18.8432 7.90695 18.6359 8.1252 18.3609C8.34346 18.0902 8.45259 17.7563 8.45259 17.3591C8.45259 16.9662 8.34564 16.6323 8.13175 16.3573C7.91786 16.0823 7.6123 15.8706 7.21508 15.7222C6.81785 15.5781 6.34424 15.5061 5.79423 15.5061Z" fill="#231F20"/>
<path d="M3.9024 32.7067C3.42116 32.703 2.99406 32.6196 2.62109 32.4564C2.25139 32.2899 1.95875 32.0422 1.74317 31.7132C1.53086 31.3809 1.42507 30.966 1.42579 30.4684C1.42641 30.0493 1.50058 29.6963 1.64832 29.4093C1.79606 29.1223 1.99938 28.8898 2.25827 28.7116C2.51716 28.5335 2.81527 28.3999 3.1526 28.3108C3.48993 28.2184 3.85014 28.1572 4.23321 28.1274C4.66213 28.0913 5.00757 28.053 5.26953 28.0124C5.5315 27.9685 5.72147 27.9061 5.83944 27.8252C5.9607 27.7409 6.02143 27.6219 6.02166 27.468L6.0217 27.4435C6.02206 27.1914 5.9356 26.9959 5.76229 26.8571C5.58898 26.7183 5.35501 26.6478 5.06037 26.6456C4.74282 26.6432 4.48737 26.7101 4.29402 26.8461C4.10066 26.9822 3.97762 27.1711 3.92489 27.413L1.71031 27.3178C1.77646 26.8599 1.94566 26.452 2.2179 26.0939C2.49343 25.7325 2.87033 25.4506 3.3486 25.2479C3.83014 25.042 4.40811 24.9416 5.0825 24.9466C5.56374 24.9503 6.00725 25.0109 6.41303 25.1285C6.81881 25.2429 7.17213 25.4092 7.473 25.6276C7.77387 25.8426 8.00593 26.1063 8.16916 26.4185C8.33566 26.7308 8.41862 27.0866 8.41804 27.4861L8.41053 32.6129L6.15165 32.5959L6.15319 31.545L6.09426 31.5445C5.95967 31.7989 5.78748 32.0137 5.5777 32.1889C5.3712 32.3641 5.12711 32.4949 4.84544 32.5812C4.56704 32.6675 4.2527 32.7093 3.9024 32.7067ZM4.64621 31.1408C4.90483 31.1427 5.13735 31.0921 5.34374 30.9889C5.55342 30.8857 5.72059 30.7429 5.84526 30.5605C5.96994 30.3748 6.03245 30.1592 6.03281 29.9137L6.03386 29.1967C5.96506 29.2322 5.88153 29.2643 5.78328 29.2931C5.68829 29.3218 5.58349 29.3488 5.46888 29.3742C5.35426 29.3995 5.23637 29.4215 5.11521 29.4403C4.99405 29.459 4.87781 29.4761 4.76648 29.4917C4.54054 29.526 4.3473 29.5802 4.18678 29.6543C4.02953 29.7284 3.90826 29.8257 3.82296 29.9462C3.74095 30.0634 3.69982 30.2039 3.69958 30.3676C3.69922 30.6164 3.78733 30.8069 3.96392 30.9392C4.14378 31.0715 4.37121 31.1387 4.64621 31.1408Z" fill="#231F20"/>
<path d="M28.2293 32.3402C26.3289 32.3402 24.6983 31.9492 23.3375 31.1671C21.9846 30.3851 20.9444 29.298 20.2171 27.9059C19.4898 26.506 19.1262 24.8872 19.1262 23.0493C19.1262 21.2037 19.4898 19.5848 20.2171 18.1928C20.9523 16.7929 21.9963 15.7019 23.3493 14.9199C24.7101 14.1378 26.3328 13.7468 28.2176 13.7468C29.8834 13.7468 31.3341 14.0479 32.5697 14.65C33.8132 15.2522 34.783 16.1047 35.479 17.2074C36.1828 18.3023 36.5543 19.5887 36.5934 21.0668H31.2324C31.1229 20.144 30.8101 19.4206 30.294 18.8966C29.7856 18.3726 29.1209 18.1106 28.2997 18.1106C27.635 18.1106 27.0523 18.2983 26.5518 18.6737C26.0513 19.0413 25.6603 19.5887 25.3787 20.3161C25.105 21.0355 24.9681 21.9271 24.9681 22.9907C24.9681 24.0543 25.105 24.9537 25.3787 25.6888C25.6603 26.4161 26.0513 26.9675 26.5518 27.3428C27.0523 27.7104 27.635 27.8942 28.2997 27.8942C28.8315 27.8942 29.3007 27.7808 29.7074 27.554C30.1219 27.3272 30.4621 26.9948 30.728 26.5569C30.9939 26.1111 31.162 25.5715 31.2324 24.938H36.5934C36.5387 26.4239 36.1672 27.7221 35.479 28.8327C34.7986 29.9432 33.8406 30.8074 32.6049 31.4252C31.3771 32.0352 29.9186 32.3402 28.2293 32.3402ZM44.6085 32.305C43.4589 32.305 42.4383 32.1134 41.5468 31.7302C40.6631 31.3392 39.9631 30.7526 39.447 29.9706C38.9386 29.1807 38.6845 28.1914 38.6845 27.0026C38.6845 26.0016 38.8604 25.157 39.2123 24.4688C39.5643 23.7806 40.0491 23.2214 40.667 22.7913C41.2848 22.3611 41.9965 22.0366 42.802 21.8176C43.6075 21.5908 44.4678 21.4383 45.3828 21.3601C46.4073 21.2663 47.2324 21.1685 47.858 21.0668C48.4836 20.9573 48.9372 20.8048 49.2188 20.6093C49.5081 20.406 49.6528 20.1205 49.6528 19.753V19.6943C49.6528 19.0921 49.4456 18.6268 49.0311 18.2983C48.6166 17.9699 48.0574 17.8056 47.3536 17.8056C46.595 17.8056 45.985 17.9699 45.5236 18.2983C45.0621 18.6268 44.7689 19.0804 44.6437 19.6591L39.3531 19.4714C39.5095 18.3765 39.9123 17.399 40.5614 16.5387C41.2183 15.6706 42.1177 14.9902 43.2595 14.4975C44.4091 13.997 45.7895 13.7468 47.4005 13.7468C48.5501 13.7468 49.6098 13.8836 50.5796 14.1573C51.5493 14.4232 52.3939 14.8143 53.1134 15.3304C53.8329 15.8388 54.3882 16.4644 54.7792 17.2074C55.1781 17.9503 55.3775 18.7989 55.3775 19.753L55.3775 32L49.9813 32V29.4896H49.8405C49.5199 30.0996 49.1093 30.6158 48.6088 31.0381C48.1161 31.4604 47.5334 31.7771 46.8609 31.9883C46.1961 32.1994 45.4453 32.305 44.6085 32.305ZM46.3799 28.5511C46.9977 28.5511 47.553 28.426 48.0457 28.1757C48.5462 27.9255 48.9451 27.5814 49.2422 27.1434C49.5394 26.6976 49.688 26.1815 49.688 25.5949V23.8822C49.5238 23.9683 49.3244 24.0465 49.0897 24.1169C48.8629 24.1872 48.6127 24.2537 48.339 24.3163C48.0652 24.3788 47.7837 24.4336 47.4943 24.4805C47.205 24.5274 46.9273 24.5704 46.6614 24.6096C46.1218 24.6956 45.6604 24.8285 45.2772 25.0084C44.9018 25.1883 44.6125 25.4229 44.4091 25.7123C44.2136 25.9938 44.1158 26.3301 44.1158 26.7211C44.1158 27.3155 44.327 27.7691 44.7493 28.0819C45.1794 28.3947 45.723 28.5511 46.3799 28.5511ZM69.0557 13.9814V18.2045H57.6885V13.9814L69.0557 13.9814ZM60.0698 9.66442H65.8062V26.334C65.8062 26.6859 65.861 26.9714 65.9705 27.1903C66.0878 27.4015 66.2559 27.554 66.4749 27.6478C66.6939 27.7339 66.9559 27.7769 67.2609 27.7769C67.4798 27.7769 67.7105 27.7573 67.953 27.7182C68.2032 27.6713 68.3909 27.6322 68.5161 27.6009L69.3841 31.7419C69.1104 31.8201 68.7233 31.9179 68.2228 32.0352C67.7301 32.1525 67.1396 32.2268 66.4514 32.2581C65.1063 32.3206 63.9528 32.1642 62.9908 31.7888C62.0367 31.4056 61.3055 30.8113 60.7971 30.0058C60.2966 29.2002 60.0542 28.1875 60.0698 26.9675L60.0698 9.66442ZM77.062 32.305C75.9124 32.305 74.8918 32.1134 74.0002 31.7302C73.1165 31.3392 72.4166 30.7526 71.9004 29.9706C71.3921 29.1807 71.1379 28.1914 71.1379 27.0026C71.1379 26.0016 71.3139 25.157 71.6658 24.4688C72.0177 23.7806 72.5026 23.2214 73.1204 22.7913C73.7383 22.3611 74.4499 22.0366 75.2554 21.8176C76.061 21.5908 76.9212 21.4383 77.8362 21.3601C78.8607 21.2663 79.6858 21.1685 80.3114 21.0668C80.9371 20.9573 81.3907 20.8048 81.6722 20.6093C81.9616 20.406 82.1063 20.1205 82.1063 19.753V19.6943C82.1063 19.0921 81.899 18.6268 81.4845 18.2983C81.07 17.9699 80.5109 17.8056 79.807 17.8056C79.0484 17.8056 78.4384 17.9699 77.977 18.2983C77.5156 18.6268 77.2223 19.0804 77.0972 19.6591L71.8066 19.4714C71.963 18.3765 72.3657 17.399 73.0148 16.5387C73.6718 15.6706 74.5711 14.9902 75.7129 14.4975C76.8626 13.997 78.2429 13.7468 79.8539 13.7468C81.0036 13.7468 82.0633 13.8836 83.033 14.1573C84.0028 14.4232 84.8474 14.8143 85.5669 15.3304C86.2864 15.8388 86.8416 16.4644 87.2327 17.2074C87.6315 17.9503 87.8309 18.7989 87.8309 19.753V32H82.4347V29.4896H82.294C81.9733 30.0996 81.5627 30.6158 81.0622 31.0381C80.5695 31.4604 79.9869 31.7771 79.3143 31.9883C78.6496 32.1994 77.8988 32.305 77.062 32.305ZM78.8334 28.5511C79.4512 28.5511 80.0064 28.426 80.4991 28.1757C80.9997 27.9255 81.3985 27.5814 81.6957 27.1434C81.9929 26.6976 82.1415 26.1815 82.1415 25.5949V23.8822C81.9772 23.9683 81.7778 24.0465 81.5432 24.1169C81.3164 24.1872 81.0661 24.2537 80.7924 24.3163C80.5187 24.3788 80.2372 24.4336 79.9478 24.4805C79.6584 24.5274 79.3808 24.5704 79.1149 24.6096C78.5753 24.6956 78.1139 24.8285 77.7307 25.0084C77.3553 25.1883 77.0659 25.4229 76.8626 25.7123C76.6671 25.9938 76.5693 26.3301 76.5693 26.7211C76.5693 27.3155 76.7805 27.7691 77.2028 28.0819C77.6329 28.3947 78.1764 28.5511 78.8334 28.5511ZM97.0749 7.97518V32L91.3385 32V7.97518L97.0749 7.97518ZM109.137 32.3402C107.245 32.3402 105.618 31.9531 104.257 31.1788C102.904 30.3968 101.86 29.3097 101.125 27.9177C100.398 26.5178 100.034 24.895 100.034 23.0493C100.034 21.1959 100.398 19.5731 101.125 18.181C101.86 16.7812 102.904 15.6941 104.257 14.9199C105.618 14.1378 107.245 13.7468 109.137 13.7468C111.03 13.7468 112.652 14.1378 114.005 14.9199C115.366 15.6941 116.41 16.7812 117.138 18.181C117.873 19.5731 118.24 21.1959 118.24 23.0493C118.24 24.895 117.873 26.5178 117.138 27.9177C116.41 29.3097 115.366 30.3968 114.005 31.1788C112.652 31.9531 111.03 32.3402 109.137 32.3402ZM109.172 28.0115C109.861 28.0115 110.443 27.8003 110.92 27.378C111.397 26.9557 111.761 26.3692 112.011 25.6184C112.269 24.8676 112.398 23.9995 112.398 23.0142C112.398 22.0131 112.269 21.1372 112.011 20.3864C111.761 19.6357 111.397 19.0491 110.92 18.6268C110.443 18.2045 109.861 17.9933 109.172 17.9933C108.461 17.9933 107.858 18.2045 107.366 18.6268C106.881 19.0491 106.509 19.6357 106.251 20.3864C106.001 21.1372 105.876 22.0131 105.876 23.0142C105.876 23.9995 106.001 24.8676 106.251 25.6184C106.509 26.3692 106.881 26.9557 107.366 27.378C107.858 27.8003 108.461 28.0115 109.172 28.0115ZM129.578 39.1324C127.865 39.1324 126.399 38.8938 125.179 38.4168C123.959 37.9397 123.001 37.2867 122.305 36.4577C121.609 35.6287 121.191 34.6903 121.05 33.6423L126.481 33.3373C126.583 33.7049 126.771 34.0255 127.044 34.2993C127.326 34.573 127.689 34.7841 128.135 34.9327C128.589 35.0813 129.121 35.1556 129.731 35.1556C130.693 35.1556 131.486 34.921 132.112 34.4518C132.746 33.9903 133.062 33.1809 133.062 32.0235V28.8561H132.863C132.636 29.4114 132.292 29.908 131.83 30.3459C131.369 30.7839 130.794 31.128 130.106 31.3783C129.426 31.6285 128.644 31.7537 127.76 31.7537C126.446 31.7537 125.242 31.4486 124.147 30.8386C123.06 30.2208 122.188 29.2667 121.531 27.9763C120.882 26.6781 120.557 25.0084 120.557 22.9672C120.557 20.8635 120.893 19.1312 121.566 17.7705C122.239 16.4019 123.118 15.3891 124.205 14.7322C125.3 14.0752 126.477 13.7468 127.736 13.7468C128.683 13.7468 129.492 13.911 130.165 14.2395C130.845 14.5601 131.404 14.9746 131.842 15.4829C132.28 15.9913 132.613 16.5192 132.839 17.0666H133.004V13.9814L138.717 13.9814V32.0704C138.717 33.5954 138.333 34.8819 137.567 35.9298C136.8 36.9778 135.729 37.7716 134.353 38.3112C132.976 38.8586 131.385 39.1324 129.578 39.1324ZM129.754 27.5775C130.45 27.5775 131.045 27.3937 131.537 27.0261C132.03 26.6585 132.409 26.1307 132.675 25.4424C132.941 24.7542 133.074 23.9292 133.074 22.9672C133.074 21.9897 132.941 21.1489 132.675 20.4451C132.417 19.7334 132.038 19.186 131.537 18.8028C131.045 18.4196 130.45 18.228 129.754 18.228C129.042 18.228 128.44 18.4235 127.948 18.8145C127.455 19.2055 127.079 19.7569 126.821 20.4686C126.571 21.1724 126.446 22.0053 126.446 22.9672C126.446 23.9292 126.575 24.7542 126.833 25.4424C127.091 26.1307 127.463 26.6585 127.948 27.0261C128.44 27.3937 129.042 27.5775 129.754 27.5775ZM153.999 24.2224V13.9814L159.724 13.9814V32H154.257V28.645H154.069C153.67 29.7477 152.99 30.6236 152.028 31.2727C151.074 31.914 149.92 32.2346 148.568 32.2346C147.34 32.2346 146.26 31.9531 145.33 31.39C144.399 30.8269 143.676 30.0409 143.16 29.0321C142.643 28.0154 142.381 26.8267 142.374 25.4659V13.9814L148.11 13.9814V24.3397C148.118 25.3173 148.376 26.0876 148.884 26.6507C149.393 27.2138 150.085 27.4953 150.961 27.4953C151.532 27.4953 152.044 27.3702 152.497 27.12C152.959 26.8619 153.322 26.4904 153.588 26.0055C153.862 25.5128 153.999 24.9185 153.999 24.2224ZM179.106 19.4832L173.839 19.6239C173.784 19.2485 173.635 18.9162 173.393 18.6268C173.151 18.3296 172.834 18.0989 172.443 17.9347C172.06 17.7626 171.614 17.6766 171.105 17.6766C170.441 17.6766 169.874 17.8096 169.404 18.0755C168.943 18.3414 168.716 18.7011 168.724 19.1547C168.716 19.5066 168.857 19.8116 169.146 20.0697C169.444 20.3278 169.971 20.535 170.73 20.6914L174.202 21.3484C176.001 21.6925 177.338 22.2634 178.214 23.0611C179.098 23.8588 179.544 24.9146 179.552 26.2284C179.544 27.4641 179.176 28.5394 178.449 29.4544C177.729 30.3694 176.744 31.0811 175.493 31.5894C174.241 32.0899 172.81 32.3402 171.199 32.3402C168.626 32.3402 166.597 31.8123 165.111 30.7565C163.633 29.6929 162.788 28.2696 162.577 26.4865L168.243 26.3457C168.368 27.0026 168.693 27.5032 169.217 27.8473C169.741 28.1914 170.409 28.3634 171.223 28.3634C171.958 28.3634 172.556 28.2266 173.018 27.9528C173.479 27.6791 173.714 27.3155 173.721 26.8619C173.714 26.4552 173.534 26.1307 173.182 25.8882C172.83 25.638 172.279 25.4424 171.528 25.3017L168.384 24.7034C166.577 24.3749 165.232 23.7688 164.348 22.8851C163.465 21.9936 163.027 20.8596 163.035 19.4832C163.027 18.2788 163.347 17.2504 163.997 16.3979C164.646 15.5377 165.568 14.8808 166.765 14.4272C167.962 13.9736 169.373 13.7468 171 13.7468C173.44 13.7468 175.364 14.259 176.771 15.2835C178.179 16.3002 178.957 17.7001 179.106 19.4832Z" fill="#3C389E"/>
</svg>
