<svg width="180" height="36" viewBox="0 0 180 36" fill="none" xmlns="http://www.w3.org/2000/svg">
<path d="M0 3.81074C3.46348e-08 3.01848 0.162055 2.33752 0.486165 1.76787C0.813548 1.2015 1.26861 0.76444 1.85135 0.4567C2.43737 0.152233 3.11669 -3.37725e-08 3.88932 0C4.66521 3.39156e-08 5.34454 0.152233 5.92728 0.4567C6.51329 0.76444 6.96836 1.2015 7.29247 1.76787C7.61985 2.33752 7.78354 3.01848 7.78354 3.81074C7.78354 4.60301 7.61985 5.28233 7.29247 5.84871C6.96836 6.41835 6.51329 6.85541 5.92728 7.15988C5.34453 7.46762 4.66521 7.62149 3.88932 7.62149C3.11669 7.62149 2.43737 7.46762 1.85135 7.15988C1.26861 6.85541 0.813548 6.41835 0.486164 5.8487C0.162055 5.28233 -3.46275e-08 4.60301 0 3.81074ZM1.81207 3.82548C1.81207 4.11357 1.90046 4.35747 2.07725 4.55718C2.25403 4.75688 2.49957 4.90911 2.81386 5.01388C3.12815 5.12191 3.49154 5.17593 3.90405 5.17593C4.3231 5.17593 4.68977 5.12191 5.00406 5.01388C5.31834 4.90911 5.56388 4.75688 5.74067 4.55718C5.91746 4.35747 6.00585 4.11357 6.00585 3.82548C6.00585 3.52756 5.91746 3.27547 5.74067 3.06922C5.56388 2.86624 5.31834 2.71073 5.00406 2.6027C4.68977 2.49794 4.3231 2.44555 3.90405 2.44555C3.49154 2.44555 3.12815 2.49794 2.81386 2.6027C2.49957 2.71073 2.25404 2.86624 2.07725 3.06922C1.90046 3.27547 1.81207 3.52756 1.81207 3.82548Z" fill="#231F20"/>
<path d="M0.463884 8.89828H13.8735V12.1001H8.79907V12.1656C9.10462 12.2965 9.39927 12.482 9.683 12.7221C9.96673 12.9666 10.1981 13.2765 10.3771 13.6519C10.5604 14.0317 10.6521 14.4856 10.6521 15.0138C10.6521 15.7122 10.4687 16.3648 10.1021 16.9716C9.73538 17.5827 9.1701 18.0759 8.40621 18.4513C7.64231 18.8267 6.66889 19.0144 5.48595 19.0144C4.34665 19.0144 3.39287 18.8333 2.62461 18.471C1.85635 18.113 1.28016 17.6285 0.89603 17.0174C0.5119 16.4106 0.319835 15.7362 0.319835 14.9942C0.319835 14.4878 0.402773 14.0491 0.568647 13.6781C0.734521 13.307 0.952777 12.9949 1.22341 12.7418C1.49405 12.4929 1.78433 12.3009 2.09425 12.1656V12.0674H0.463884L0.463884 8.89828ZM5.49249 12.0346C4.95122 12.0346 4.47979 12.1066 4.0782 12.2507C3.67661 12.3991 3.3645 12.6108 3.14188 12.8858C2.92362 13.1652 2.8145 13.4991 2.8145 13.8876C2.8145 14.2805 2.92362 14.6144 3.14188 14.8894C3.3645 15.1644 3.67661 15.3717 4.0782 15.5114C4.47979 15.6555 4.95122 15.7275 5.49249 15.7275C6.03377 15.7275 6.50302 15.6555 6.90024 15.5114C7.29747 15.3717 7.60521 15.1644 7.82346 14.8894C8.04172 14.6188 8.15085 14.2848 8.15085 13.8876C8.15085 13.4947 8.0439 13.1608 7.83001 12.8858C7.61612 12.6108 7.31056 12.3991 6.91334 12.2507C6.51611 12.1066 6.0425 12.0346 5.49249 12.0346Z" fill="#231F20"/>
<path d="M3.60061 29.2352C3.11937 29.2316 2.69226 29.1482 2.31929 28.9849C1.9496 28.8185 1.65696 28.5707 1.44137 28.2417C1.22906 27.9095 1.12327 27.4945 1.124 26.9969C1.12461 26.5779 1.19879 26.2248 1.34653 25.9378C1.49427 25.6508 1.69758 25.4183 1.95647 25.2402C2.21536 25.0621 2.51347 24.9284 2.8508 24.8393C3.18814 24.7469 3.54834 24.6858 3.93142 24.6559C4.36033 24.6199 4.70577 24.5815 4.96774 24.5409C5.2297 24.4971 5.41967 24.4347 5.53765 24.3537C5.6589 24.2695 5.71964 24.1504 5.71986 23.9966L5.7199 23.972C5.72027 23.7199 5.6338 23.5245 5.46049 23.3857C5.28719 23.2469 5.05321 23.1764 4.75858 23.1742C4.44102 23.1718 4.18557 23.2386 3.99222 23.3747C3.79887 23.5107 3.67582 23.6997 3.62309 23.9415L1.40852 23.8463C1.47466 23.3885 1.64386 22.9805 1.91611 22.6224C2.19163 22.2611 2.56853 21.9791 3.0468 21.7764C3.52835 21.5705 4.10632 21.4701 4.78071 21.4752C5.26195 21.4788 5.70546 21.5394 6.11123 21.6571C6.51701 21.7714 6.87034 21.9378 7.17121 22.1561C7.47208 22.3712 7.70413 22.6348 7.86736 22.9471C8.03387 23.2594 8.11683 23.6152 8.11624 24.0146L8.10874 29.1414L5.84986 29.1244L5.85139 28.0735L5.79247 28.0731C5.65787 28.3274 5.48568 28.5422 5.2759 28.7174C5.0694 28.8927 4.82531 29.0234 4.54364 29.1097C4.26524 29.196 3.9509 29.2378 3.60061 29.2352ZM4.34441 27.6693C4.60304 27.6713 4.83555 27.6206 5.04195 27.5174C5.25162 27.4142 5.41879 27.2715 5.54346 27.0891C5.66814 26.9034 5.73066 26.6878 5.73102 26.4422L5.73207 25.7253C5.66326 25.7608 5.57974 25.7929 5.48148 25.8216C5.3865 25.8504 5.2817 25.8774 5.16708 25.9027C5.05246 25.9281 4.93457 25.9501 4.81341 25.9688C4.69226 25.9875 4.57601 26.0047 4.46468 26.0202C4.23874 26.0545 4.04551 26.1087 3.88498 26.1828C3.72774 26.2569 3.60646 26.3542 3.52117 26.4747C3.43915 26.592 3.39802 26.7324 3.39778 26.8961C3.39742 27.1449 3.48553 27.3355 3.66212 27.4678C3.84199 27.6001 4.06942 27.6673 4.34441 27.6693Z" fill="#231F20"/>
<path d="M27.9275 28.8687C26.0271 28.8687 24.3965 28.4777 23.0358 27.6957C21.6828 26.9136 20.6427 25.8265 19.9153 24.4345C19.188 23.0346 18.8244 21.4157 18.8244 19.5779C18.8244 17.7322 19.188 16.1134 19.9153 14.7213C20.6505 13.3214 21.6945 12.2305 23.0475 11.4484C24.4083 10.6663 26.031 10.2753 27.9158 10.2753C29.5816 10.2753 31.0323 10.5764 32.268 11.1786C33.5114 11.7808 34.4812 12.6332 35.1772 13.7359C35.8811 14.8308 36.2525 16.1173 36.2916 17.5954H30.9306C30.8211 16.6725 30.5083 15.9491 29.9922 15.4252C29.4838 14.9012 28.8191 14.6392 27.9979 14.6392C27.3332 14.6392 26.7505 14.8269 26.25 15.2023C25.7495 15.5698 25.3585 16.1173 25.0769 16.8446C24.8032 17.5641 24.6664 18.4556 24.6664 19.5192C24.6664 20.5828 24.8032 21.4822 25.0769 22.2173C25.3585 22.9446 25.7495 23.496 26.25 23.8714C26.7505 24.239 27.3332 24.4227 27.9979 24.4227C28.5297 24.4227 28.999 24.3093 29.4056 24.0825C29.8201 23.8557 30.1603 23.5234 30.4262 23.0854C30.6921 22.6396 30.8603 22.1 30.9306 21.4666H36.2916C36.2369 22.9525 35.8654 24.2507 35.1772 25.3612C34.4968 26.4717 33.5388 27.3359 32.3032 27.9537C31.0753 28.5637 29.6168 28.8687 27.9275 28.8687Z" fill="#3C389E"/>
<path d="M44.3068 28.8335C43.1571 28.8335 42.1365 28.6419 41.245 28.2587C40.3613 27.8677 39.6613 27.2812 39.1452 26.4991C38.6368 25.7092 38.3827 24.7199 38.3827 23.5312C38.3827 22.5302 38.5586 21.6855 38.9106 20.9973C39.2625 20.3091 39.7474 19.7499 40.3652 19.3198C40.983 18.8897 41.6947 18.5651 42.5002 18.3461C43.3057 18.1194 44.166 17.9668 45.081 17.8886C46.1055 17.7948 46.9306 17.697 47.5562 17.5954C48.1819 17.4859 48.6355 17.3334 48.917 17.1379C49.2064 16.9345 49.351 16.6491 49.351 16.2815V16.2229C49.351 15.6207 49.1438 15.1554 48.7293 14.8269C48.3148 14.4984 47.7556 14.3342 47.0518 14.3342C46.2932 14.3342 45.6832 14.4984 45.2218 14.8269C44.7604 15.1554 44.4671 15.6089 44.342 16.1877L39.0513 16C39.2077 14.9051 39.6105 13.9275 40.2596 13.0673C40.9165 12.1992 41.8159 11.5188 42.9577 11.0261C44.1073 10.5256 45.4877 10.2753 47.0987 10.2753C48.2483 10.2753 49.308 10.4122 50.2778 10.6859C51.2475 10.9518 52.0921 11.3428 52.8116 11.859C53.5311 12.3673 54.0864 12.993 54.4774 13.7359C54.8763 14.4789 55.0757 15.3274 55.0757 16.2815V28.5285H49.6795V26.0181H49.5387C49.2181 26.6281 48.8075 27.1443 48.307 27.5666C47.8143 27.9889 47.2317 28.3057 46.5591 28.5168C45.8943 28.728 45.1436 28.8335 44.3068 28.8335ZM46.0781 25.0797C46.6959 25.0797 47.2512 24.9545 47.7439 24.7043C48.2444 24.454 48.6433 24.1099 48.9405 23.672C49.2376 23.2262 49.3862 22.71 49.3862 22.1235V20.4108C49.222 20.4968 49.0226 20.575 48.788 20.6454C48.5612 20.7158 48.3109 20.7823 48.0372 20.8448C47.7635 20.9074 47.4819 20.9621 47.1926 21.0091C46.9032 21.056 46.6256 21.099 46.3597 21.1381C45.82 21.2241 45.3586 21.3571 44.9754 21.5369C44.6 21.7168 44.3107 21.9514 44.1073 22.2408C43.9118 22.5223 43.8141 22.8586 43.8141 23.2497C43.8141 23.844 44.0252 24.2976 44.4475 24.6104C44.8777 24.9233 45.4212 25.0797 46.0781 25.0797Z" fill="#3C389E"/>
<path d="M68.7539 10.5099V14.733H57.3867V10.5099H68.7539ZM59.768 6.19297H65.5044V22.8625C65.5044 23.2145 65.5592 23.4999 65.6687 23.7189C65.786 23.93 65.9541 24.0825 66.1731 24.1764C66.3921 24.2624 66.6541 24.3054 66.9591 24.3054C67.178 24.3054 67.4088 24.2859 67.6512 24.2468C67.9015 24.1999 68.0891 24.1607 68.2143 24.1295L69.0824 28.2705C68.8086 28.3487 68.4215 28.4464 67.921 28.5637C67.4283 28.681 66.8379 28.7553 66.1496 28.7866C64.8045 28.8492 63.651 28.6928 62.689 28.3174C61.7349 27.9342 61.0037 27.3398 60.4954 26.5343C59.9948 25.7288 59.7524 24.716 59.768 23.496V6.19297Z" fill="#3C389E"/>
<path d="M76.7602 28.8335C75.6106 28.8335 74.59 28.6419 73.6985 28.2587C72.8147 27.8677 72.1148 27.2812 71.5986 26.4991C71.0903 25.7092 70.8361 24.7199 70.8361 23.5312C70.8361 22.5302 71.0121 21.6855 71.364 20.9973C71.7159 20.3091 72.2008 19.7499 72.8186 19.3198C73.4365 18.8897 74.1481 18.5651 74.9537 18.3461C75.7592 18.1194 76.6194 17.9668 77.5344 17.8886C78.5589 17.7948 79.384 17.697 80.0097 17.5954C80.6353 17.4859 81.0889 17.3334 81.3704 17.1379C81.6598 16.9345 81.8045 16.6491 81.8045 16.2815V16.2229C81.8045 15.6207 81.5972 15.1554 81.1827 14.8269C80.7683 14.4984 80.2091 14.3342 79.5052 14.3342C78.7466 14.3342 78.1366 14.4984 77.6752 14.8269C77.2138 15.1554 76.9205 15.6089 76.7954 16.1877L71.5048 16C71.6612 14.9051 72.064 13.9275 72.7131 13.0673C73.37 12.1992 74.2694 11.5188 75.4112 11.0261C76.5608 10.5256 77.9411 10.2753 79.5522 10.2753C80.7018 10.2753 81.7615 10.4122 82.7312 10.6859C83.701 10.9518 84.5456 11.3428 85.2651 11.859C85.9846 12.3673 86.5398 12.993 86.9309 13.7359C87.3297 14.4789 87.5292 15.3274 87.5292 16.2815V28.5285H82.1329V26.0181H81.9922C81.6715 26.6281 81.261 27.1443 80.7604 27.5666C80.2677 27.9889 79.6851 28.3057 79.0125 28.5168C78.3478 28.728 77.597 28.8335 76.7602 28.8335ZM78.5316 25.0797C79.1494 25.0797 79.7047 24.9545 80.1974 24.7043C80.6979 24.454 81.0967 24.1099 81.3939 23.672C81.6911 23.2262 81.8397 22.71 81.8397 22.1235V20.4108C81.6754 20.4968 81.476 20.575 81.2414 20.6454C81.0146 20.7158 80.7644 20.7823 80.4906 20.8448C80.2169 20.9074 79.9354 20.9621 79.646 21.0091C79.3566 21.056 79.079 21.099 78.8131 21.1381C78.2735 21.2241 77.8121 21.3571 77.4289 21.5369C77.0535 21.7168 76.7641 21.9514 76.5608 22.2408C76.3653 22.5223 76.2675 22.8586 76.2675 23.2497C76.2675 23.844 76.4787 24.2976 76.901 24.6104C77.3311 24.9233 77.8746 25.0797 78.5316 25.0797Z" fill="#3C389E"/>
<path d="M96.7731 4.50372V28.5285H91.0367V4.50372H96.7731Z" fill="#3C389E"/>
<path d="M108.835 28.8687C106.943 28.8687 105.316 28.4816 103.955 27.7074C102.602 26.9253 101.558 25.8383 100.823 24.4462C100.096 23.0463 99.7322 21.4235 99.7322 19.5779C99.7322 17.7244 100.096 16.1016 100.823 14.7096C101.558 13.3097 102.602 12.2226 103.955 11.4484C105.316 10.6663 106.943 10.2753 108.835 10.2753C110.728 10.2753 112.351 10.6663 113.704 11.4484C115.064 12.2226 116.108 13.3097 116.836 14.7096C117.571 16.1016 117.939 17.7244 117.939 19.5779C117.939 21.4235 117.571 23.0463 116.836 24.4462C116.108 25.8383 115.064 26.9253 113.704 27.7074C112.351 28.4816 110.728 28.8687 108.835 28.8687ZM108.871 24.54C109.559 24.54 110.141 24.3289 110.618 23.9066C111.095 23.4843 111.459 22.8977 111.709 22.1469C111.967 21.3962 112.097 20.5281 112.097 19.5427C112.097 18.5417 111.967 17.6658 111.709 16.915C111.459 16.1642 111.095 15.5777 110.618 15.1554C110.141 14.733 109.559 14.5219 108.871 14.5219C108.159 14.5219 107.557 14.733 107.064 15.1554C106.579 15.5777 106.208 16.1642 105.95 16.915C105.699 17.6658 105.574 18.5417 105.574 19.5427C105.574 20.5281 105.699 21.3962 105.95 22.1469C106.208 22.8977 106.579 23.4843 107.064 23.9066C107.557 24.3289 108.159 24.54 108.871 24.54Z" fill="#3C389E"/>
<path d="M129.276 35.6609C127.564 35.6609 126.097 35.4224 124.877 34.9453C123.657 34.4683 122.699 33.8153 122.003 32.9863C121.307 32.1573 120.889 31.2188 120.748 30.1709L126.179 29.8659C126.281 30.2334 126.469 30.5541 126.743 30.8278C127.024 31.1015 127.388 31.3127 127.833 31.4613C128.287 31.6099 128.819 31.6841 129.429 31.6841C130.391 31.6841 131.185 31.4495 131.81 30.9803C132.444 30.5189 132.76 29.7095 132.76 28.552V25.3847H132.561C132.334 25.9399 131.99 26.4365 131.529 26.8745C131.067 27.3124 130.492 27.6565 129.804 27.9068C129.124 28.1571 128.342 28.2822 127.458 28.2822C126.144 28.2822 124.94 27.9772 123.845 27.3672C122.758 26.7494 121.886 25.7953 121.229 24.5049C120.58 23.2066 120.255 21.5369 120.255 19.4958C120.255 17.392 120.592 15.6598 121.264 14.299C121.937 12.9304 122.817 11.9176 123.904 11.2607C124.999 10.6038 126.176 10.2753 127.435 10.2753C128.381 10.2753 129.19 10.4395 129.863 10.768C130.543 11.0886 131.102 11.5031 131.54 12.0115C131.978 12.5198 132.311 13.0477 132.538 13.5951H132.702V10.5099H138.415V28.5989C138.415 30.1239 138.032 31.4104 137.265 32.4584C136.499 33.5063 135.427 34.3001 134.051 34.8398C132.674 35.3872 131.083 35.6609 129.276 35.6609ZM129.452 24.106C130.148 24.106 130.743 23.9222 131.235 23.5547C131.728 23.1871 132.107 22.6592 132.373 21.971C132.639 21.2828 132.772 20.4577 132.772 19.4958C132.772 18.5182 132.639 17.6775 132.373 16.9736C132.115 16.262 131.736 15.7145 131.235 15.3313C130.743 14.9481 130.148 14.7565 129.452 14.7565C128.741 14.7565 128.138 14.952 127.646 15.343C127.153 15.7341 126.778 16.2854 126.52 16.9971C126.269 17.7009 126.144 18.5338 126.144 19.4958C126.144 20.4577 126.273 21.2828 126.531 21.971C126.789 22.6592 127.161 23.1871 127.646 23.5547C128.138 23.9222 128.741 24.106 129.452 24.106Z" fill="#3C389E"/>
<path d="M153.697 20.751V10.5099H159.422V28.5285H153.955V25.1735H153.768C153.369 26.2762 152.688 27.1521 151.726 27.8012C150.772 28.4425 149.619 28.7632 148.266 28.7632C147.038 28.7632 145.959 28.4816 145.028 27.9185C144.097 27.3555 143.374 26.5695 142.858 25.5606C142.342 24.544 142.08 23.3552 142.072 21.9944V10.5099H147.808V20.8683C147.816 21.8459 148.074 22.6162 148.582 23.1793C149.091 23.7423 149.783 24.0239 150.659 24.0239C151.23 24.0239 151.742 23.8988 152.196 23.6485C152.657 23.3904 153.021 23.0189 153.287 22.5341C153.56 22.0414 153.697 21.447 153.697 20.751Z" fill="#3C389E"/>
<path d="M178.804 16.0117L173.537 16.1525C173.482 15.7771 173.334 15.4447 173.091 15.1554C172.849 14.8582 172.532 14.6275 172.141 14.4632C171.758 14.2912 171.312 14.2052 170.804 14.2052C170.139 14.2052 169.572 14.3381 169.103 14.604C168.641 14.8699 168.414 15.2296 168.422 15.6832C168.414 16.0352 168.555 16.3402 168.845 16.5982C169.142 16.8563 169.67 17.0636 170.428 17.22L173.901 17.8769C175.699 18.221 177.037 18.7919 177.913 19.5896C178.796 20.3873 179.242 21.4431 179.25 22.757C179.242 23.9926 178.875 25.0679 178.147 25.9829C177.428 26.898 176.442 27.6096 175.191 28.118C173.94 28.6185 172.509 28.8687 170.898 28.8687C168.325 28.8687 166.295 28.3408 164.809 27.2851C163.331 26.2215 162.486 24.7981 162.275 23.015L167.941 22.8743C168.066 23.5312 168.391 24.0317 168.915 24.3758C169.439 24.7199 170.108 24.892 170.921 24.892C171.656 24.892 172.254 24.7551 172.716 24.4814C173.177 24.2077 173.412 23.844 173.42 23.3904C173.412 22.9838 173.232 22.6592 172.88 22.4168C172.528 22.1665 171.977 21.971 171.226 21.8302L168.082 21.2319C166.276 20.9035 164.93 20.2974 164.047 19.4137C163.163 18.5221 162.725 17.3881 162.733 16.0117C162.725 14.8073 163.046 13.7789 163.695 12.9265C164.344 12.0662 165.267 11.4093 166.463 10.9557C167.66 10.5021 169.071 10.2753 170.698 10.2753C173.138 10.2753 175.062 10.7876 176.47 11.8121C177.877 12.8287 178.656 14.2286 178.804 16.0117Z" fill="#3C389E"/>
</svg>
