<svg width="84" height="84" viewBox="0 0 84 84" fill="none" xmlns="http://www.w3.org/2000/svg">
<g filter="url(#filter0_d_49_93)">
<circle cx="42" cy="42" r="32" fill="white"/>
</g>
<mask id="path-2-outside-1_49_93" maskUnits="userSpaceOnUse" x="22" y="25" width="41" height="34" fill="black">
<rect fill="white" x="22" y="25" width="41" height="34"/>
<path fill-rule="evenodd" clip-rule="evenodd" d="M27 37.6364C27 41.8538 37.9383 54 42.1111 54C46.2839 54 57.2222 41.8538 57.2222 37.6364C57.2222 33.4189 53.8395 30 49.6667 30C45.4938 30 42.1111 33.4189 42.1111 37.6364C42.1111 33.4189 38.7284 30 34.5556 30C30.3827 30 27 33.4189 27 37.6364Z"/>
</mask>
<path fill-rule="evenodd" clip-rule="evenodd" d="M27 37.6364C27 41.8538 37.9383 54 42.1111 54C46.2839 54 57.2222 41.8538 57.2222 37.6364C57.2222 33.4189 53.8395 30 49.6667 30C45.4938 30 42.1111 33.4189 42.1111 37.6364C42.1111 33.4189 38.7284 30 34.5556 30C30.3827 30 27 33.4189 27 37.6364Z" fill="#3C389E" fill-opacity="0.1"/>
<path d="M42.1111 49C42.6869 49 42.8592 49.1726 42.4541 48.9751C42.1273 48.8159 41.6317 48.516 40.9823 48.0308C39.6884 47.0641 38.1617 45.6466 36.682 44.0271C35.2056 42.4112 33.9029 40.7334 33.0052 39.3079C32.5551 38.5933 32.26 38.0259 32.092 37.6236C31.8922 37.1452 32 37.2044 32 37.6364H22C22 39.1227 22.4496 40.484 22.8643 41.4771C23.3108 42.5463 23.9028 43.6197 24.5435 44.637C25.827 46.675 27.5197 48.8245 29.2995 50.7724C31.0759 52.7166 33.0663 54.5992 34.9969 56.0417C35.9598 56.7611 37.0033 57.4431 38.0734 57.9646C39.0652 58.4479 40.4921 59 42.1111 59V49ZM42.1111 59C43.7301 59 45.157 58.4479 46.1488 57.9646C47.2189 57.4431 48.2625 56.7611 49.2253 56.0417C51.156 54.5992 53.1463 52.7166 54.9227 50.7724C56.7025 48.8245 58.3952 46.675 59.6788 44.637C60.3194 43.6197 60.9114 42.5463 61.3579 41.4771C61.7726 40.484 62.2222 39.1227 62.2222 37.6364H52.2222C52.2222 37.2044 52.33 37.1452 52.1302 37.6236C51.9622 38.0259 51.6671 38.5933 51.2171 39.3079C50.3193 40.7334 49.0166 42.4112 47.5403 44.0271C46.0605 45.6466 44.5338 47.0641 43.2399 48.0308C42.5905 48.516 42.0949 48.8159 41.7682 48.9751C41.363 49.1726 41.5353 49 42.1111 49V59ZM62.2222 37.6364C62.2222 30.7078 56.6509 25 49.6667 25V35C51.028 35 52.2222 36.1301 52.2222 37.6364H62.2222ZM49.6667 25C42.6824 25 37.1111 30.7078 37.1111 37.6364H47.1111C47.1111 36.1301 48.3053 35 49.6667 35V25ZM34.5556 35C35.9169 35 37.1111 36.1301 37.1111 37.6364H47.1111C47.1111 30.7078 41.5398 25 34.5556 25V35ZM32 37.6364C32 36.1301 33.1942 35 34.5556 35V25C27.5713 25 22 30.7078 22 37.6364H32Z" fill="#3C389E" mask="url(#path-2-outside-1_49_93)"/>
<defs>
<filter id="filter0_d_49_93" x="0.588235" y="0.588235" width="82.8235" height="82.8235" filterUnits="userSpaceOnUse" color-interpolation-filters="sRGB">
<feFlood flood-opacity="0" result="BackgroundImageFix"/>
<feColorMatrix in="SourceAlpha" type="matrix" values="0 0 0 0 0 0 0 0 0 0 0 0 0 0 0 0 0 0 127 0" result="hardAlpha"/>
<feOffset/>
<feGaussianBlur stdDeviation="4.70588"/>
<feComposite in2="hardAlpha" operator="out"/>
<feColorMatrix type="matrix" values="0 0 0 0 0 0 0 0 0 0 0 0 0 0 0 0 0 0 0.25 0"/>
<feBlend mode="normal" in2="BackgroundImageFix" result="effect1_dropShadow_49_93"/>
<feBlend mode="normal" in="SourceGraphic" in2="effect1_dropShadow_49_93" result="shape"/>
</filter>
</defs>
</svg>
