<svg width="35" height="28" viewBox="0 0 35 28" fill="none" xmlns="http://www.w3.org/2000/svg">
<mask id="path-1-outside-1_203_4" maskUnits="userSpaceOnUse" x="0" y="0" width="35" height="28" fill="black">
<rect fill="white" width="35" height="28"/>
<path fill-rule="evenodd" clip-rule="evenodd" d="M2 9.63636C2 13.8538 12.9383 26 17.1111 26C21.2839 26 32.2222 13.8538 32.2222 9.63636C32.2222 5.41892 28.8395 2 24.6667 2C20.4938 2 17.1111 5.41892 17.1111 9.63636C17.1111 5.41892 13.7284 2 9.55556 2C5.38274 2 2 5.41892 2 9.63636Z"/>
</mask>
<path fill-rule="evenodd" clip-rule="evenodd" d="M2 9.63636C2 13.8538 12.9383 26 17.1111 26C21.2839 26 32.2222 13.8538 32.2222 9.63636C32.2222 5.41892 28.8395 2 24.6667 2C20.4938 2 17.1111 5.41892 17.1111 9.63636C17.1111 5.41892 13.7284 2 9.55556 2C5.38274 2 2 5.41892 2 9.63636Z" fill="#D9D9D9"/>
<path d="M17.1111 24C17.0285 24 16.721 23.9551 16.1399 23.672C15.5901 23.4041 14.9301 22.9895 14.1867 22.4341C12.7018 21.3246 11.036 19.7676 9.46724 18.0507C7.89983 16.3352 6.48016 14.5159 5.46665 12.9066C4.95944 12.1012 4.57524 11.382 4.3237 10.7797C4.05944 10.1468 4 9.77989 4 9.63636H0C0 10.5472 0.282386 11.4824 0.63261 12.321C0.995558 13.1902 1.49851 14.1118 2.08197 15.0382C3.24979 16.8925 4.82549 18.9005 6.51426 20.7488C8.20168 22.5956 10.0529 24.3387 11.7925 25.6385C12.6613 26.2876 13.5405 26.8549 14.3876 27.2677C15.2034 27.6653 16.1505 28 17.1111 28V24ZM17.1111 28C18.0717 28 19.0188 27.6653 19.8346 27.2677C20.6817 26.8549 21.5609 26.2876 22.4297 25.6385C24.1693 24.3387 26.0205 22.5956 27.708 20.7488C29.3967 18.9005 30.9724 16.8925 32.1403 15.0382C32.7237 14.1118 33.2267 13.1902 33.5896 12.321C33.9398 11.4824 34.2222 10.5472 34.2222 9.63636H30.2222C30.2222 9.77989 30.1628 10.1468 29.8985 10.7797C29.647 11.382 29.2628 12.1012 28.7556 12.9066C27.7421 14.5159 26.3224 16.3352 24.755 18.0507C23.1862 19.7676 21.5205 21.3246 20.0356 22.4341C19.2921 22.9895 18.6321 23.4041 18.0823 23.672C17.5012 23.9551 17.1937 24 17.1111 24V28ZM34.2222 9.63636C34.2222 4.33446 29.9641 0 24.6667 0V4C27.7149 4 30.2222 6.50337 30.2222 9.63636H34.2222ZM24.6667 0C19.3693 0 15.1111 4.33446 15.1111 9.63636H19.1111C19.1111 6.50337 21.6184 4 24.6667 4V0ZM9.55556 4C12.6038 4 15.1111 6.50337 15.1111 9.63636H19.1111C19.1111 4.33446 14.8529 0 9.55556 0V4ZM4 9.63636C4 6.50337 6.50731 4 9.55556 4V0C4.25816 0 0 4.33446 0 9.63636H4Z" fill="#242174" mask="url(#path-1-outside-1_203_4)"/>
</svg>
