<svg width="30" height="29" viewBox="0 0 30 29" fill="none" xmlns="http://www.w3.org/2000/svg">
<path d="M15 1.27353e-06C16.9042 1.1903e-06 18.7897 0.375055 20.5489 1.10375C22.3081 1.83244 23.9066 2.9005 25.253 4.24695C26.5995 5.5934 27.6676 7.19187 28.3963 8.95109C29.1249 10.7103 29.5 12.5958 29.5 14.5C29.5 16.4042 29.1249 18.2897 28.3963 20.0489C27.6676 21.8081 26.5995 23.4066 25.253 24.753C23.9066 26.0995 22.3081 27.1676 20.5489 27.8963C18.7897 28.6249 16.9042 29 15 29L15 14.5L15 1.27353e-06Z" fill="#FE3080"/>
<circle cx="15.9211" cy="13.4211" r="13.4211" fill="#FE3080"/>
<path d="M14.3068 16.6392V16.3977C14.3116 15.5691 14.3849 14.9086 14.527 14.4162C14.6738 13.9238 14.8868 13.526 15.1662 13.223C15.4455 12.92 15.7817 12.6454 16.1747 12.3991C16.4683 12.2098 16.7311 12.0133 16.9631 11.8097C17.1951 11.6061 17.3797 11.3812 17.517 11.1349C17.6544 10.884 17.723 10.6046 17.723 10.2969C17.723 9.97017 17.6449 9.68371 17.4886 9.4375C17.3324 9.19129 17.1217 9.00189 16.8565 8.86932C16.5961 8.73674 16.3073 8.67045 15.9901 8.67045C15.6823 8.67045 15.3911 8.73911 15.1165 8.87642C14.8419 9.009 14.617 9.20786 14.4418 9.47301C14.2666 9.73343 14.1719 10.0578 14.1577 10.446H11.2599C11.2836 9.49905 11.5109 8.7178 11.9418 8.10227C12.3726 7.48201 12.9432 7.02036 13.6534 6.71733C14.3636 6.40956 15.1473 6.25568 16.0043 6.25568C16.9465 6.25568 17.7798 6.41193 18.5043 6.72443C19.2287 7.0322 19.7969 7.47964 20.2088 8.06676C20.6207 8.65388 20.8267 9.36174 20.8267 10.1903C20.8267 10.7443 20.7344 11.2367 20.5497 11.6676C20.3698 12.0937 20.1165 12.4725 19.7898 12.804C19.4631 13.1307 19.0772 13.4266 18.6321 13.6918C18.258 13.9143 17.9503 14.1463 17.7088 14.3878C17.4721 14.6293 17.2945 14.9086 17.1761 15.2259C17.0625 15.5431 17.0033 15.9337 16.9986 16.3977V16.6392H14.3068ZM15.7131 21.1847C15.2396 21.1847 14.8348 21.0189 14.4986 20.6875C14.1671 20.3513 14.0038 19.9489 14.0085 19.4801C14.0038 19.0161 14.1671 18.6184 14.4986 18.2869C14.8348 17.9555 15.2396 17.7898 15.7131 17.7898C16.1629 17.7898 16.5582 17.9555 16.8991 18.2869C17.2401 18.6184 17.4129 19.0161 17.4176 19.4801C17.4129 19.7926 17.33 20.0791 17.169 20.3395C17.0128 20.5952 16.8068 20.8011 16.5511 20.9574C16.2955 21.1089 16.0161 21.1847 15.7131 21.1847Z" fill="white"/>
</svg>
